{
	"patcher" : 	{
		"fileversion" : 1,
		"appversion" : 		{
			"major" : 7,
			"minor" : 3,
			"revision" : 5,
			"architecture" : "x64",
			"modernui" : 1
		}
,
		"rect" : [ 34.0, 79.0, 900.0, 651.0 ],
		"bglocked" : 0,
		"openinpresentation" : 1,
		"default_fontsize" : 12.0,
		"default_fontface" : 0,
		"default_fontname" : "Arial",
		"gridonopen" : 1,
		"gridsize" : [ 15.0, 15.0 ],
		"gridsnaponopen" : 1,
		"objectsnaponopen" : 1,
		"statusbarvisible" : 2,
		"toolbarvisible" : 1,
		"lefttoolbarpinned" : 0,
		"toptoolbarpinned" : 0,
		"righttoolbarpinned" : 0,
		"bottomtoolbarpinned" : 0,
		"toolbars_unpinned_last_save" : 0,
		"tallnewobj" : 0,
		"boxanimatetime" : 200,
		"enablehscroll" : 1,
		"enablevscroll" : 1,
		"devicewidth" : 0.0,
		"description" : "",
		"digest" : "",
		"tags" : "",
		"style" : "",
		"subpatcher_template" : "",
		"showontab" : 0,
		"boxes" : [ 			{
				"box" : 				{
					"comment" : "",
					"id" : "obj-22",
					"index" : 0,
					"maxclass" : "inlet",
					"numinlets" : 0,
					"numoutlets" : 1,
					"outlettype" : [ "" ],
					"patching_rect" : [ 46.0, 600.5, 30.0, 30.0 ],
					"style" : ""
				}

			}
, 			{
				"box" : 				{
					"id" : "obj-18",
					"maxclass" : "comment",
					"numinlets" : 1,
					"numoutlets" : 0,
					"patching_rect" : [ 848.333313, 216.333374, 60.0, 20.0 ],
					"presentation" : 1,
					"presentation_rect" : [ 848.333313, 216.333374, 60.0, 20.0 ],
					"style" : "",
					"text" : "Bank J"
				}

			}
, 			{
				"box" : 				{
					"id" : "obj-19",
					"maxclass" : "comment",
					"numinlets" : 1,
					"numoutlets" : 0,
					"patching_rect" : [ 565.555542, 216.333374, 60.0, 20.0 ],
					"presentation" : 1,
					"presentation_rect" : [ 565.555542, 216.333374, 60.0, 20.0 ],
					"style" : "",
					"text" : "Bank I"
				}

			}
, 			{
				"box" : 				{
					"id" : "obj-20",
					"maxclass" : "comment",
					"numinlets" : 1,
					"numoutlets" : 0,
					"patching_rect" : [ 282.777771, 216.333374, 60.0, 20.0 ],
					"presentation" : 1,
					"presentation_rect" : [ 282.777771, 216.333374, 60.0, 20.0 ],
					"style" : "",
					"text" : "Bank H"
				}

			}
, 			{
				"box" : 				{
					"id" : "obj-21",
					"maxclass" : "comment",
					"numinlets" : 1,
					"numoutlets" : 0,
					"patching_rect" : [ -0.000008, 216.333374, 60.0, 20.0 ],
					"presentation" : 1,
					"presentation_rect" : [ 0.0, 216.333374, 60.0, 20.0 ],
					"style" : "",
					"text" : "Bank G"
				}

			}
, 			{
				"box" : 				{
					"id" : "obj-17",
					"maxclass" : "comment",
					"numinlets" : 1,
					"numoutlets" : 0,
					"patching_rect" : [ 848.333313, 0.0, 60.0, 20.0 ],
					"presentation" : 1,
					"presentation_rect" : [ 848.333313, 0.0, 60.0, 20.0 ],
					"style" : "",
					"text" : "Bank F"
				}

			}
, 			{
				"box" : 				{
					"id" : "obj-15",
					"maxclass" : "comment",
					"numinlets" : 1,
					"numoutlets" : 0,
					"patching_rect" : [ 565.555542, 0.0, 60.0, 20.0 ],
					"presentation" : 1,
					"presentation_rect" : [ 565.555542, 0.0, 60.0, 20.0 ],
					"style" : "",
					"text" : "Bank E"
				}

			}
, 			{
				"box" : 				{
					"bgmode" : 0,
					"border" : 0,
					"clickthrough" : 0,
					"enablehscroll" : 0,
					"enablevscroll" : 0,
					"id" : "obj-13",
					"lockeddragscroll" : 0,
					"maxclass" : "bpatcher",
					"name" : "dropfile_48.maxpat",
					"numinlets" : 0,
					"numoutlets" : 1,
					"offset" : [ 0.0, 0.0 ],
					"outlettype" : [ "" ],
					"patching_rect" : [ 1034.333374, 22.0, 60.0, 60.0 ],
					"presentation" : 1,
					"presentation_rect" : [ 1034.333374, 22.0, 60.0, 60.0 ],
					"varname" : "dropfile_48",
					"viewvisibility" : 1
				}

			}
, 			{
				"box" : 				{
					"id" : "obj-112",
					"maxclass" : "comment",
					"numinlets" : 1,
					"numoutlets" : 0,
					"patching_rect" : [ 282.777771, 0.0, 60.0, 20.0 ],
					"presentation" : 1,
					"presentation_rect" : [ 282.777771, 0.0, 60.0, 20.0 ],
					"style" : "",
					"text" : "Bank D"
				}

			}
, 			{
				"box" : 				{
					"bgmode" : 0,
					"border" : 0,
					"clickthrough" : 0,
					"enablehscroll" : 0,
					"enablevscroll" : 0,
					"id" : "obj-100",
					"lockeddragscroll" : 0,
					"maxclass" : "bpatcher",
					"name" : "dropfile_88.maxpat",
					"numinlets" : 0,
					"numoutlets" : 1,
					"offset" : [ 0.0, 0.0 ],
					"outlettype" : [ "" ],
					"patching_rect" : [ 1034.333374, 362.333374, 60.0, 60.0 ],
					"presentation" : 1,
					"presentation_rect" : [ 1034.333374, 362.333374, 60.0, 60.0 ],
					"varname" : "dropfile_88",
					"viewvisibility" : 1
				}

			}
, 			{
				"box" : 				{
					"bgmode" : 0,
					"border" : 0,
					"clickthrough" : 0,
					"enablehscroll" : 0,
					"enablevscroll" : 0,
					"id" : "obj-101",
					"lockeddragscroll" : 0,
					"maxclass" : "bpatcher",
					"name" : "dropfile_92.maxpat",
					"numinlets" : 0,
					"numoutlets" : 1,
					"offset" : [ 0.0, 0.0 ],
					"outlettype" : [ "" ],
					"patching_rect" : [ 1034.333374, 300.333374, 60.0, 60.0 ],
					"presentation" : 1,
					"presentation_rect" : [ 1034.333374, 300.333374, 60.0, 60.0 ],
					"varname" : "dropfile_92",
					"viewvisibility" : 1
				}

			}
, 			{
				"box" : 				{
					"bgmode" : 0,
					"border" : 0,
					"clickthrough" : 0,
					"enablehscroll" : 0,
					"enablevscroll" : 0,
					"id" : "obj-102",
					"lockeddragscroll" : 0,
					"maxclass" : "bpatcher",
					"name" : "dropfile_96.maxpat",
					"numinlets" : 0,
					"numoutlets" : 1,
					"offset" : [ 0.0, 0.0 ],
					"outlettype" : [ "" ],
					"patching_rect" : [ 1034.333374, 238.333374, 60.0, 60.0 ],
					"presentation" : 1,
					"presentation_rect" : [ 1034.333374, 238.333374, 60.0, 60.0 ],
					"varname" : "dropfile_96",
					"viewvisibility" : 1
				}

			}
, 			{
				"box" : 				{
					"bgmode" : 0,
					"border" : 0,
					"clickthrough" : 0,
					"enablehscroll" : 0,
					"enablevscroll" : 0,
					"id" : "obj-103",
					"lockeddragscroll" : 0,
					"maxclass" : "bpatcher",
					"name" : "dropfile_87.maxpat",
					"numinlets" : 0,
					"numoutlets" : 1,
					"offset" : [ 0.0, 0.0 ],
					"outlettype" : [ "" ],
					"patching_rect" : [ 972.333313, 362.333374, 60.0, 60.0 ],
					"presentation" : 1,
					"presentation_rect" : [ 972.333313, 362.333374, 60.0, 60.0 ],
					"varname" : "dropfile_87",
					"viewvisibility" : 1
				}

			}
, 			{
				"box" : 				{
					"bgmode" : 0,
					"border" : 0,
					"clickthrough" : 0,
					"enablehscroll" : 0,
					"enablevscroll" : 0,
					"id" : "obj-104",
					"lockeddragscroll" : 0,
					"maxclass" : "bpatcher",
					"name" : "dropfile_91.maxpat",
					"numinlets" : 0,
					"numoutlets" : 1,
					"offset" : [ 0.0, 0.0 ],
					"outlettype" : [ "" ],
					"patching_rect" : [ 972.333313, 300.333374, 60.0, 60.0 ],
					"presentation" : 1,
					"presentation_rect" : [ 972.333313, 300.333374, 60.0, 60.0 ],
					"varname" : "dropfile_91",
					"viewvisibility" : 1
				}

			}
, 			{
				"box" : 				{
					"bgmode" : 0,
					"border" : 0,
					"clickthrough" : 0,
					"enablehscroll" : 0,
					"enablevscroll" : 0,
					"id" : "obj-105",
					"lockeddragscroll" : 0,
					"maxclass" : "bpatcher",
					"name" : "dropfile_95.maxpat",
					"numinlets" : 0,
					"numoutlets" : 1,
					"offset" : [ 0.0, 0.0 ],
					"outlettype" : [ "" ],
					"patching_rect" : [ 972.333313, 238.333374, 60.0, 60.0 ],
					"presentation" : 1,
					"presentation_rect" : [ 972.333313, 238.333374, 60.0, 60.0 ],
					"varname" : "dropfile_95",
					"viewvisibility" : 1
				}

			}
, 			{
				"box" : 				{
					"bgmode" : 0,
					"border" : 0,
					"clickthrough" : 0,
					"enablehscroll" : 0,
					"enablevscroll" : 0,
					"id" : "obj-106",
					"lockeddragscroll" : 0,
					"maxclass" : "bpatcher",
					"name" : "dropfile_86.maxpat",
					"numinlets" : 0,
					"numoutlets" : 1,
					"offset" : [ 0.0, 0.0 ],
					"outlettype" : [ "" ],
					"patching_rect" : [ 910.333313, 362.333374, 60.0, 60.0 ],
					"presentation" : 1,
					"presentation_rect" : [ 910.333313, 362.333374, 60.0, 60.0 ],
					"varname" : "dropfile_86",
					"viewvisibility" : 1
				}

			}
, 			{
				"box" : 				{
					"bgmode" : 0,
					"border" : 0,
					"clickthrough" : 0,
					"enablehscroll" : 0,
					"enablevscroll" : 0,
					"id" : "obj-107",
					"lockeddragscroll" : 0,
					"maxclass" : "bpatcher",
					"name" : "dropfile_90.maxpat",
					"numinlets" : 0,
					"numoutlets" : 1,
					"offset" : [ 0.0, 0.0 ],
					"outlettype" : [ "" ],
					"patching_rect" : [ 910.333313, 300.333374, 60.0, 60.0 ],
					"presentation" : 1,
					"presentation_rect" : [ 910.333313, 300.333374, 60.0, 60.0 ],
					"varname" : "dropfile_90",
					"viewvisibility" : 1
				}

			}
, 			{
				"box" : 				{
					"bgmode" : 0,
					"border" : 0,
					"clickthrough" : 0,
					"enablehscroll" : 0,
					"enablevscroll" : 0,
					"id" : "obj-108",
					"lockeddragscroll" : 0,
					"maxclass" : "bpatcher",
					"name" : "dropfile_94.maxpat",
					"numinlets" : 0,
					"numoutlets" : 1,
					"offset" : [ 0.0, 0.0 ],
					"outlettype" : [ "" ],
					"patching_rect" : [ 910.333313, 238.333374, 60.0, 60.0 ],
					"presentation" : 1,
					"presentation_rect" : [ 910.333313, 238.333374, 60.0, 60.0 ],
					"varname" : "dropfile_94",
					"viewvisibility" : 1
				}

			}
, 			{
				"box" : 				{
					"bgmode" : 0,
					"border" : 0,
					"clickthrough" : 0,
					"enablehscroll" : 0,
					"enablevscroll" : 0,
					"id" : "obj-109",
					"lockeddragscroll" : 0,
					"maxclass" : "bpatcher",
					"name" : "dropfile_85.maxpat",
					"numinlets" : 0,
					"numoutlets" : 1,
					"offset" : [ 0.0, 0.0 ],
					"outlettype" : [ "" ],
					"patching_rect" : [ 848.333313, 362.333374, 60.0, 60.0 ],
					"presentation" : 1,
					"presentation_rect" : [ 848.333313, 362.333374, 60.0, 60.0 ],
					"varname" : "dropfile_85",
					"viewvisibility" : 1
				}

			}
, 			{
				"box" : 				{
					"bgmode" : 0,
					"border" : 0,
					"clickthrough" : 0,
					"enablehscroll" : 0,
					"enablevscroll" : 0,
					"id" : "obj-110",
					"lockeddragscroll" : 0,
					"maxclass" : "bpatcher",
					"name" : "dropfile_89.maxpat",
					"numinlets" : 0,
					"numoutlets" : 1,
					"offset" : [ 0.0, 0.0 ],
					"outlettype" : [ "" ],
					"patching_rect" : [ 848.333313, 300.333374, 60.0, 60.0 ],
					"presentation" : 1,
					"presentation_rect" : [ 848.333313, 300.333374, 60.0, 60.0 ],
					"varname" : "dropfile_89",
					"viewvisibility" : 1
				}

			}
, 			{
				"box" : 				{
					"bgmode" : 0,
					"border" : 0,
					"clickthrough" : 0,
					"enablehscroll" : 0,
					"enablevscroll" : 0,
					"id" : "obj-111",
					"lockeddragscroll" : 0,
					"maxclass" : "bpatcher",
					"name" : "dropfile_93.maxpat",
					"numinlets" : 0,
					"numoutlets" : 1,
					"offset" : [ 0.0, 0.0 ],
					"outlettype" : [ "" ],
					"patching_rect" : [ 848.333313, 238.333374, 60.0, 60.0 ],
					"presentation" : 1,
					"presentation_rect" : [ 848.333313, 238.333374, 60.0, 60.0 ],
					"varname" : "dropfile_93",
					"viewvisibility" : 1
				}

			}
, 			{
				"box" : 				{
					"bgmode" : 0,
					"border" : 0,
					"clickthrough" : 0,
					"enablehscroll" : 0,
					"enablevscroll" : 0,
					"id" : "obj-88",
					"lockeddragscroll" : 0,
					"maxclass" : "bpatcher",
					"name" : "dropfile_76.maxpat",
					"numinlets" : 0,
					"numoutlets" : 1,
					"offset" : [ 0.0, 0.0 ],
					"outlettype" : [ "" ],
					"patching_rect" : [ 751.555603, 362.333374, 60.0, 60.0 ],
					"presentation" : 1,
					"presentation_rect" : [ 751.555603, 362.333374, 60.0, 60.0 ],
					"varname" : "dropfile_76",
					"viewvisibility" : 1
				}

			}
, 			{
				"box" : 				{
					"bgmode" : 0,
					"border" : 0,
					"clickthrough" : 0,
					"enablehscroll" : 0,
					"enablevscroll" : 0,
					"id" : "obj-89",
					"lockeddragscroll" : 0,
					"maxclass" : "bpatcher",
					"name" : "dropfile_80.maxpat",
					"numinlets" : 0,
					"numoutlets" : 1,
					"offset" : [ 0.0, 0.0 ],
					"outlettype" : [ "" ],
					"patching_rect" : [ 751.555603, 300.333374, 60.0, 60.0 ],
					"presentation" : 1,
					"presentation_rect" : [ 751.555603, 300.333374, 60.0, 60.0 ],
					"varname" : "dropfile_80",
					"viewvisibility" : 1
				}

			}
, 			{
				"box" : 				{
					"bgmode" : 0,
					"border" : 0,
					"clickthrough" : 0,
					"enablehscroll" : 0,
					"enablevscroll" : 0,
					"id" : "obj-90",
					"lockeddragscroll" : 0,
					"maxclass" : "bpatcher",
					"name" : "dropfile_83.maxpat",
					"numinlets" : 0,
					"numoutlets" : 1,
					"offset" : [ 0.0, 0.0 ],
					"outlettype" : [ "" ],
					"patching_rect" : [ 689.555603, 238.333374, 60.0, 60.0 ],
					"presentation" : 1,
					"presentation_rect" : [ 689.555603, 238.333374, 60.0, 60.0 ],
					"varname" : "dropfile_83",
					"viewvisibility" : 1
				}

			}
, 			{
				"box" : 				{
					"bgmode" : 0,
					"border" : 0,
					"clickthrough" : 0,
					"enablehscroll" : 0,
					"enablevscroll" : 0,
					"id" : "obj-91",
					"lockeddragscroll" : 0,
					"maxclass" : "bpatcher",
					"name" : "dropfile_75.maxpat",
					"numinlets" : 0,
					"numoutlets" : 1,
					"offset" : [ 0.0, 0.0 ],
					"outlettype" : [ "" ],
					"patching_rect" : [ 689.555542, 362.333374, 60.0, 60.0 ],
					"presentation" : 1,
					"presentation_rect" : [ 689.555542, 362.333374, 60.0, 60.0 ],
					"varname" : "dropfile_75",
					"viewvisibility" : 1
				}

			}
, 			{
				"box" : 				{
					"bgmode" : 0,
					"border" : 0,
					"clickthrough" : 0,
					"enablehscroll" : 0,
					"enablevscroll" : 0,
					"id" : "obj-92",
					"lockeddragscroll" : 0,
					"maxclass" : "bpatcher",
					"name" : "dropfile_79.maxpat",
					"numinlets" : 0,
					"numoutlets" : 1,
					"offset" : [ 0.0, 0.0 ],
					"outlettype" : [ "" ],
					"patching_rect" : [ 689.555542, 300.333374, 60.0, 60.0 ],
					"presentation" : 1,
					"presentation_rect" : [ 689.555542, 300.333374, 60.0, 60.0 ],
					"varname" : "dropfile_79",
					"viewvisibility" : 1
				}

			}
, 			{
				"box" : 				{
					"bgmode" : 0,
					"border" : 0,
					"clickthrough" : 0,
					"enablehscroll" : 0,
					"enablevscroll" : 0,
					"id" : "obj-93",
					"lockeddragscroll" : 0,
					"maxclass" : "bpatcher",
					"name" : "dropfile_84.maxpat",
					"numinlets" : 0,
					"numoutlets" : 1,
					"offset" : [ 0.0, 0.0 ],
					"outlettype" : [ "" ],
					"patching_rect" : [ 751.555603, 238.333374, 60.0, 60.0 ],
					"presentation" : 1,
					"presentation_rect" : [ 751.555603, 238.333374, 60.0, 60.0 ],
					"varname" : "dropfile_84",
					"viewvisibility" : 1
				}

			}
, 			{
				"box" : 				{
					"bgmode" : 0,
					"border" : 0,
					"clickthrough" : 0,
					"enablehscroll" : 0,
					"enablevscroll" : 0,
					"id" : "obj-94",
					"lockeddragscroll" : 0,
					"maxclass" : "bpatcher",
					"name" : "dropfile_74.maxpat",
					"numinlets" : 0,
					"numoutlets" : 1,
					"offset" : [ 0.0, 0.0 ],
					"outlettype" : [ "" ],
					"patching_rect" : [ 627.555542, 362.333374, 60.0, 60.0 ],
					"presentation" : 1,
					"presentation_rect" : [ 627.555542, 362.333374, 60.0, 60.0 ],
					"varname" : "dropfile_74",
					"viewvisibility" : 1
				}

			}
, 			{
				"box" : 				{
					"bgmode" : 0,
					"border" : 0,
					"clickthrough" : 0,
					"enablehscroll" : 0,
					"enablevscroll" : 0,
					"id" : "obj-95",
					"lockeddragscroll" : 0,
					"maxclass" : "bpatcher",
					"name" : "dropfile_78.maxpat",
					"numinlets" : 0,
					"numoutlets" : 1,
					"offset" : [ 0.0, 0.0 ],
					"outlettype" : [ "" ],
					"patching_rect" : [ 627.555542, 300.333374, 60.0, 60.0 ],
					"presentation" : 1,
					"presentation_rect" : [ 627.555542, 300.333374, 60.0, 60.0 ],
					"varname" : "dropfile_78",
					"viewvisibility" : 1
				}

			}
, 			{
				"box" : 				{
					"bgmode" : 0,
					"border" : 0,
					"clickthrough" : 0,
					"enablehscroll" : 0,
					"enablevscroll" : 0,
					"id" : "obj-96",
					"lockeddragscroll" : 0,
					"maxclass" : "bpatcher",
					"name" : "dropfile_82.maxpat",
					"numinlets" : 0,
					"numoutlets" : 1,
					"offset" : [ 0.0, 0.0 ],
					"outlettype" : [ "" ],
					"patching_rect" : [ 627.555542, 238.333374, 60.0, 60.0 ],
					"presentation" : 1,
					"presentation_rect" : [ 627.555542, 238.333374, 60.0, 60.0 ],
					"varname" : "dropfile_82",
					"viewvisibility" : 1
				}

			}
, 			{
				"box" : 				{
					"bgmode" : 0,
					"border" : 0,
					"clickthrough" : 0,
					"enablehscroll" : 0,
					"enablevscroll" : 0,
					"id" : "obj-97",
					"lockeddragscroll" : 0,
					"maxclass" : "bpatcher",
					"name" : "dropfile_73.maxpat",
					"numinlets" : 0,
					"numoutlets" : 1,
					"offset" : [ 0.0, 0.0 ],
					"outlettype" : [ "" ],
					"patching_rect" : [ 565.555542, 362.333374, 60.0, 60.0 ],
					"presentation" : 1,
					"presentation_rect" : [ 565.555542, 362.333374, 60.0, 60.0 ],
					"varname" : "dropfile_73",
					"viewvisibility" : 1
				}

			}
, 			{
				"box" : 				{
					"bgmode" : 0,
					"border" : 0,
					"clickthrough" : 0,
					"enablehscroll" : 0,
					"enablevscroll" : 0,
					"id" : "obj-98",
					"lockeddragscroll" : 0,
					"maxclass" : "bpatcher",
					"name" : "dropfile_77.maxpat",
					"numinlets" : 0,
					"numoutlets" : 1,
					"offset" : [ 0.0, 0.0 ],
					"outlettype" : [ "" ],
					"patching_rect" : [ 565.555542, 300.333374, 60.0, 60.0 ],
					"presentation" : 1,
					"presentation_rect" : [ 565.555542, 300.333374, 60.0, 60.0 ],
					"varname" : "dropfile_77",
					"viewvisibility" : 1
				}

			}
, 			{
				"box" : 				{
					"bgmode" : 0,
					"border" : 0,
					"clickthrough" : 0,
					"enablehscroll" : 0,
					"enablevscroll" : 0,
					"id" : "obj-99",
					"lockeddragscroll" : 0,
					"maxclass" : "bpatcher",
					"name" : "dropfile_81.maxpat",
					"numinlets" : 0,
					"numoutlets" : 1,
					"offset" : [ 0.0, 0.0 ],
					"outlettype" : [ "" ],
					"patching_rect" : [ 565.555542, 238.333374, 60.0, 60.0 ],
					"presentation" : 1,
					"presentation_rect" : [ 565.555542, 238.333374, 60.0, 60.0 ],
					"varname" : "dropfile_81",
					"viewvisibility" : 1
				}

			}
, 			{
				"box" : 				{
					"bgmode" : 0,
					"border" : 0,
					"clickthrough" : 0,
					"enablehscroll" : 0,
					"enablevscroll" : 0,
					"id" : "obj-76",
					"lockeddragscroll" : 0,
					"maxclass" : "bpatcher",
					"name" : "dropfile_64.maxpat",
					"numinlets" : 0,
					"numoutlets" : 1,
					"offset" : [ 0.0, 0.0 ],
					"outlettype" : [ "" ],
					"patching_rect" : [ 468.777832, 362.333374, 60.0, 60.0 ],
					"presentation" : 1,
					"presentation_rect" : [ 468.777832, 362.333374, 60.0, 60.0 ],
					"varname" : "dropfile_64",
					"viewvisibility" : 1
				}

			}
, 			{
				"box" : 				{
					"bgmode" : 0,
					"border" : 0,
					"clickthrough" : 0,
					"enablehscroll" : 0,
					"enablevscroll" : 0,
					"id" : "obj-77",
					"lockeddragscroll" : 0,
					"maxclass" : "bpatcher",
					"name" : "dropfile_68.maxpat",
					"numinlets" : 0,
					"numoutlets" : 1,
					"offset" : [ 0.0, 0.0 ],
					"outlettype" : [ "" ],
					"patching_rect" : [ 468.777832, 300.333374, 60.0, 60.0 ],
					"presentation" : 1,
					"presentation_rect" : [ 468.777832, 300.333374, 60.0, 60.0 ],
					"varname" : "dropfile_68",
					"viewvisibility" : 1
				}

			}
, 			{
				"box" : 				{
					"bgmode" : 0,
					"border" : 0,
					"clickthrough" : 0,
					"enablehscroll" : 0,
					"enablevscroll" : 0,
					"id" : "obj-78",
					"lockeddragscroll" : 0,
					"maxclass" : "bpatcher",
					"name" : "dropfile_72.maxpat",
					"numinlets" : 0,
					"numoutlets" : 1,
					"offset" : [ 0.0, 0.0 ],
					"outlettype" : [ "" ],
					"patching_rect" : [ 468.777832, 238.333374, 60.0, 60.0 ],
					"presentation" : 1,
					"presentation_rect" : [ 468.777832, 238.333374, 60.0, 60.0 ],
					"varname" : "dropfile_72",
					"viewvisibility" : 1
				}

			}
, 			{
				"box" : 				{
					"bgmode" : 0,
					"border" : 0,
					"clickthrough" : 0,
					"enablehscroll" : 0,
					"enablevscroll" : 0,
					"id" : "obj-79",
					"lockeddragscroll" : 0,
					"maxclass" : "bpatcher",
					"name" : "dropfile_63.maxpat",
					"numinlets" : 0,
					"numoutlets" : 1,
					"offset" : [ 0.0, 0.0 ],
					"outlettype" : [ "" ],
					"patching_rect" : [ 406.777771, 362.333374, 60.0, 60.0 ],
					"presentation" : 1,
					"presentation_rect" : [ 406.777771, 362.333374, 60.0, 60.0 ],
					"varname" : "dropfile_63",
					"viewvisibility" : 1
				}

			}
, 			{
				"box" : 				{
					"bgmode" : 0,
					"border" : 0,
					"clickthrough" : 0,
					"enablehscroll" : 0,
					"enablevscroll" : 0,
					"id" : "obj-80",
					"lockeddragscroll" : 0,
					"maxclass" : "bpatcher",
					"name" : "dropfile_67.maxpat",
					"numinlets" : 0,
					"numoutlets" : 1,
					"offset" : [ 0.0, 0.0 ],
					"outlettype" : [ "" ],
					"patching_rect" : [ 406.777771, 300.333374, 60.0, 60.0 ],
					"presentation" : 1,
					"presentation_rect" : [ 406.777771, 300.333374, 60.0, 60.0 ],
					"varname" : "dropfile_67",
					"viewvisibility" : 1
				}

			}
, 			{
				"box" : 				{
					"bgmode" : 0,
					"border" : 0,
					"clickthrough" : 0,
					"enablehscroll" : 0,
					"enablevscroll" : 0,
					"id" : "obj-81",
					"lockeddragscroll" : 0,
					"maxclass" : "bpatcher",
					"name" : "dropfile_71.maxpat",
					"numinlets" : 0,
					"numoutlets" : 1,
					"offset" : [ 0.0, 0.0 ],
					"outlettype" : [ "" ],
					"patching_rect" : [ 406.777771, 238.333374, 60.0, 60.0 ],
					"presentation" : 1,
					"presentation_rect" : [ 406.777771, 238.333374, 60.0, 60.0 ],
					"varname" : "dropfile_71",
					"viewvisibility" : 1
				}

			}
, 			{
				"box" : 				{
					"bgmode" : 0,
					"border" : 0,
					"clickthrough" : 0,
					"enablehscroll" : 0,
					"enablevscroll" : 0,
					"id" : "obj-82",
					"lockeddragscroll" : 0,
					"maxclass" : "bpatcher",
					"name" : "dropfile_62.maxpat",
					"numinlets" : 0,
					"numoutlets" : 1,
					"offset" : [ 0.0, 0.0 ],
					"outlettype" : [ "" ],
					"patching_rect" : [ 344.777771, 362.333374, 60.0, 60.0 ],
					"presentation" : 1,
					"presentation_rect" : [ 344.777771, 362.333374, 60.0, 60.0 ],
					"varname" : "dropfile_62",
					"viewvisibility" : 1
				}

			}
, 			{
				"box" : 				{
					"bgmode" : 0,
					"border" : 0,
					"clickthrough" : 0,
					"enablehscroll" : 0,
					"enablevscroll" : 0,
					"id" : "obj-83",
					"lockeddragscroll" : 0,
					"maxclass" : "bpatcher",
					"name" : "dropfile_66.maxpat",
					"numinlets" : 0,
					"numoutlets" : 1,
					"offset" : [ 0.0, 0.0 ],
					"outlettype" : [ "" ],
					"patching_rect" : [ 344.777771, 300.333374, 60.0, 60.0 ],
					"presentation" : 1,
					"presentation_rect" : [ 344.777771, 300.333374, 60.0, 60.0 ],
					"varname" : "dropfile_66",
					"viewvisibility" : 1
				}

			}
, 			{
				"box" : 				{
					"bgmode" : 0,
					"border" : 0,
					"clickthrough" : 0,
					"enablehscroll" : 0,
					"enablevscroll" : 0,
					"id" : "obj-84",
					"lockeddragscroll" : 0,
					"maxclass" : "bpatcher",
					"name" : "dropfile_70.maxpat",
					"numinlets" : 0,
					"numoutlets" : 1,
					"offset" : [ 0.0, 0.0 ],
					"outlettype" : [ "" ],
					"patching_rect" : [ 344.777771, 238.333374, 60.0, 60.0 ],
					"presentation" : 1,
					"presentation_rect" : [ 344.777771, 238.333374, 60.0, 60.0 ],
					"varname" : "dropfile_70",
					"viewvisibility" : 1
				}

			}
, 			{
				"box" : 				{
					"bgmode" : 0,
					"border" : 0,
					"clickthrough" : 0,
					"enablehscroll" : 0,
					"enablevscroll" : 0,
					"id" : "obj-85",
					"lockeddragscroll" : 0,
					"maxclass" : "bpatcher",
					"name" : "dropfile_61.maxpat",
					"numinlets" : 0,
					"numoutlets" : 1,
					"offset" : [ 0.0, 0.0 ],
					"outlettype" : [ "" ],
					"patching_rect" : [ 282.777771, 362.333374, 60.0, 60.0 ],
					"presentation" : 1,
					"presentation_rect" : [ 282.777771, 362.333374, 60.0, 60.0 ],
					"varname" : "dropfile_61",
					"viewvisibility" : 1
				}

			}
, 			{
				"box" : 				{
					"bgmode" : 0,
					"border" : 0,
					"clickthrough" : 0,
					"enablehscroll" : 0,
					"enablevscroll" : 0,
					"id" : "obj-86",
					"lockeddragscroll" : 0,
					"maxclass" : "bpatcher",
					"name" : "dropfile_65.maxpat",
					"numinlets" : 0,
					"numoutlets" : 1,
					"offset" : [ 0.0, 0.0 ],
					"outlettype" : [ "" ],
					"patching_rect" : [ 282.777771, 300.333374, 60.0, 60.0 ],
					"presentation" : 1,
					"presentation_rect" : [ 282.777771, 300.333374, 60.0, 60.0 ],
					"varname" : "dropfile_65",
					"viewvisibility" : 1
				}

			}
, 			{
				"box" : 				{
					"bgmode" : 0,
					"border" : 0,
					"clickthrough" : 0,
					"enablehscroll" : 0,
					"enablevscroll" : 0,
					"id" : "obj-87",
					"lockeddragscroll" : 0,
					"maxclass" : "bpatcher",
					"name" : "dropfile_69.maxpat",
					"numinlets" : 0,
					"numoutlets" : 1,
					"offset" : [ 0.0, 0.0 ],
					"outlettype" : [ "" ],
					"patching_rect" : [ 282.777771, 238.333374, 60.0, 60.0 ],
					"presentation" : 1,
					"presentation_rect" : [ 282.777771, 238.333374, 60.0, 60.0 ],
					"varname" : "dropfile_69",
					"viewvisibility" : 1
				}

			}
, 			{
				"box" : 				{
					"bgmode" : 0,
					"border" : 0,
					"clickthrough" : 0,
					"enablehscroll" : 0,
					"enablevscroll" : 0,
					"id" : "obj-64",
					"lockeddragscroll" : 0,
					"maxclass" : "bpatcher",
					"name" : "dropfile_52.maxpat",
					"numinlets" : 0,
					"numoutlets" : 1,
					"offset" : [ 0.0, 0.0 ],
					"outlettype" : [ "" ],
					"patching_rect" : [ 186.000061, 362.333374, 60.0, 60.0 ],
					"presentation" : 1,
					"presentation_rect" : [ 186.000061, 362.333374, 60.0, 60.0 ],
					"varname" : "dropfile_52",
					"viewvisibility" : 1
				}

			}
, 			{
				"box" : 				{
					"bgmode" : 0,
					"border" : 0,
					"clickthrough" : 0,
					"enablehscroll" : 0,
					"enablevscroll" : 0,
					"id" : "obj-65",
					"lockeddragscroll" : 0,
					"maxclass" : "bpatcher",
					"name" : "dropfile_56.maxpat",
					"numinlets" : 0,
					"numoutlets" : 1,
					"offset" : [ 0.0, 0.0 ],
					"outlettype" : [ "" ],
					"patching_rect" : [ 186.000061, 300.333374, 60.0, 60.0 ],
					"presentation" : 1,
					"presentation_rect" : [ 186.000061, 300.333374, 60.0, 60.0 ],
					"varname" : "dropfile_56",
					"viewvisibility" : 1
				}

			}
, 			{
				"box" : 				{
					"bgmode" : 0,
					"border" : 0,
					"clickthrough" : 0,
					"enablehscroll" : 0,
					"enablevscroll" : 0,
					"id" : "obj-66",
					"lockeddragscroll" : 0,
					"maxclass" : "bpatcher",
					"name" : "dropfile_60.maxpat",
					"numinlets" : 0,
					"numoutlets" : 1,
					"offset" : [ 0.0, 0.0 ],
					"outlettype" : [ "" ],
					"patching_rect" : [ 186.000061, 238.333374, 60.0, 60.0 ],
					"presentation" : 1,
					"presentation_rect" : [ 186.000061, 238.333374, 60.0, 60.0 ],
					"varname" : "dropfile_60",
					"viewvisibility" : 1
				}

			}
, 			{
				"box" : 				{
					"bgmode" : 0,
					"border" : 0,
					"clickthrough" : 0,
					"enablehscroll" : 0,
					"enablevscroll" : 0,
					"id" : "obj-67",
					"lockeddragscroll" : 0,
					"maxclass" : "bpatcher",
					"name" : "dropfile_51.maxpat",
					"numinlets" : 0,
					"numoutlets" : 1,
					"offset" : [ 0.0, 0.0 ],
					"outlettype" : [ "" ],
					"patching_rect" : [ 124.0, 362.333374, 60.0, 60.0 ],
					"presentation" : 1,
					"presentation_rect" : [ 124.0, 362.333374, 60.0, 60.0 ],
					"varname" : "dropfile_51",
					"viewvisibility" : 1
				}

			}
, 			{
				"box" : 				{
					"bgmode" : 0,
					"border" : 0,
					"clickthrough" : 0,
					"enablehscroll" : 0,
					"enablevscroll" : 0,
					"id" : "obj-68",
					"lockeddragscroll" : 0,
					"maxclass" : "bpatcher",
					"name" : "dropfile_55.maxpat",
					"numinlets" : 0,
					"numoutlets" : 1,
					"offset" : [ 0.0, 0.0 ],
					"outlettype" : [ "" ],
					"patching_rect" : [ 124.0, 300.333374, 60.0, 60.0 ],
					"presentation" : 1,
					"presentation_rect" : [ 124.0, 300.333374, 60.0, 60.0 ],
					"varname" : "dropfile_55",
					"viewvisibility" : 1
				}

			}
, 			{
				"box" : 				{
					"bgmode" : 0,
					"border" : 0,
					"clickthrough" : 0,
					"enablehscroll" : 0,
					"enablevscroll" : 0,
					"id" : "obj-69",
					"lockeddragscroll" : 0,
					"maxclass" : "bpatcher",
					"name" : "dropfile_59.maxpat",
					"numinlets" : 0,
					"numoutlets" : 1,
					"offset" : [ 0.0, 0.0 ],
					"outlettype" : [ "" ],
					"patching_rect" : [ 124.0, 238.333374, 60.0, 60.0 ],
					"presentation" : 1,
					"presentation_rect" : [ 124.0, 238.333374, 60.0, 60.0 ],
					"varname" : "dropfile_59",
					"viewvisibility" : 1
				}

			}
, 			{
				"box" : 				{
					"bgmode" : 0,
					"border" : 0,
					"clickthrough" : 0,
					"enablehscroll" : 0,
					"enablevscroll" : 0,
					"id" : "obj-70",
					"lockeddragscroll" : 0,
					"maxclass" : "bpatcher",
					"name" : "dropfile_50.maxpat",
					"numinlets" : 0,
					"numoutlets" : 1,
					"offset" : [ 0.0, 0.0 ],
					"outlettype" : [ "" ],
					"patching_rect" : [ 61.999992, 362.333374, 60.0, 60.0 ],
					"presentation" : 1,
					"presentation_rect" : [ 61.999992, 362.333374, 60.0, 60.0 ],
					"varname" : "dropfile_50",
					"viewvisibility" : 1
				}

			}
, 			{
				"box" : 				{
					"bgmode" : 0,
					"border" : 0,
					"clickthrough" : 0,
					"enablehscroll" : 0,
					"enablevscroll" : 0,
					"id" : "obj-71",
					"lockeddragscroll" : 0,
					"maxclass" : "bpatcher",
					"name" : "dropfile_54.maxpat",
					"numinlets" : 0,
					"numoutlets" : 1,
					"offset" : [ 0.0, 0.0 ],
					"outlettype" : [ "" ],
					"patching_rect" : [ 61.999992, 300.333374, 60.0, 60.0 ],
					"presentation" : 1,
					"presentation_rect" : [ 61.999992, 300.333374, 60.0, 60.0 ],
					"varname" : "dropfile_54",
					"viewvisibility" : 1
				}

			}
, 			{
				"box" : 				{
					"bgmode" : 0,
					"border" : 0,
					"clickthrough" : 0,
					"enablehscroll" : 0,
					"enablevscroll" : 0,
					"id" : "obj-72",
					"lockeddragscroll" : 0,
					"maxclass" : "bpatcher",
					"name" : "dropfile_58.maxpat",
					"numinlets" : 0,
					"numoutlets" : 1,
					"offset" : [ 0.0, 0.0 ],
					"outlettype" : [ "" ],
					"patching_rect" : [ 61.999992, 238.333374, 60.0, 60.0 ],
					"presentation" : 1,
					"presentation_rect" : [ 61.999992, 238.333374, 60.0, 60.0 ],
					"varname" : "dropfile_58",
					"viewvisibility" : 1
				}

			}
, 			{
				"box" : 				{
					"bgmode" : 0,
					"border" : 0,
					"clickthrough" : 0,
					"enablehscroll" : 0,
					"enablevscroll" : 0,
					"id" : "obj-73",
					"lockeddragscroll" : 0,
					"maxclass" : "bpatcher",
					"name" : "dropfile_49.maxpat",
					"numinlets" : 0,
					"numoutlets" : 1,
					"offset" : [ 0.0, 0.0 ],
					"outlettype" : [ "" ],
					"patching_rect" : [ 0.0, 362.333374, 60.0, 60.0 ],
					"presentation" : 1,
					"presentation_rect" : [ 0.0, 362.333374, 60.0, 60.0 ],
					"varname" : "dropfile_49",
					"viewvisibility" : 1
				}

			}
, 			{
				"box" : 				{
					"bgmode" : 0,
					"border" : 0,
					"clickthrough" : 0,
					"enablehscroll" : 0,
					"enablevscroll" : 0,
					"id" : "obj-74",
					"lockeddragscroll" : 0,
					"maxclass" : "bpatcher",
					"name" : "dropfile_53.maxpat",
					"numinlets" : 0,
					"numoutlets" : 1,
					"offset" : [ 0.0, 0.0 ],
					"outlettype" : [ "" ],
					"patching_rect" : [ 0.0, 300.333374, 60.0, 60.0 ],
					"presentation" : 1,
					"presentation_rect" : [ 0.0, 300.333374, 60.0, 60.0 ],
					"varname" : "dropfile_53",
					"viewvisibility" : 1
				}

			}
, 			{
				"box" : 				{
					"bgmode" : 0,
					"border" : 0,
					"clickthrough" : 0,
					"enablehscroll" : 0,
					"enablevscroll" : 0,
					"id" : "obj-75",
					"lockeddragscroll" : 0,
					"maxclass" : "bpatcher",
					"name" : "dropfile_57.maxpat",
					"numinlets" : 0,
					"numoutlets" : 1,
					"offset" : [ 0.0, 0.0 ],
					"outlettype" : [ "" ],
					"patching_rect" : [ 0.0, 238.333374, 60.0, 60.0 ],
					"presentation" : 1,
					"presentation_rect" : [ 0.0, 238.333374, 60.0, 60.0 ],
					"varname" : "dropfile_57",
					"viewvisibility" : 1
				}

			}
, 			{
				"box" : 				{
					"bgmode" : 0,
					"border" : 0,
					"clickthrough" : 0,
					"enablehscroll" : 0,
					"enablevscroll" : 0,
					"id" : "obj-52",
					"lockeddragscroll" : 0,
					"maxclass" : "bpatcher",
					"name" : "dropfile_40.maxpat",
					"numinlets" : 0,
					"numoutlets" : 1,
					"offset" : [ 0.0, 0.0 ],
					"outlettype" : [ "" ],
					"patching_rect" : [ 1034.333374, 146.0, 60.0, 60.0 ],
					"presentation" : 1,
					"presentation_rect" : [ 1034.333374, 146.0, 60.0, 60.0 ],
					"varname" : "dropfile_40",
					"viewvisibility" : 1
				}

			}
, 			{
				"box" : 				{
					"bgmode" : 0,
					"border" : 0,
					"clickthrough" : 0,
					"enablehscroll" : 0,
					"enablevscroll" : 0,
					"id" : "obj-53",
					"lockeddragscroll" : 0,
					"maxclass" : "bpatcher",
					"name" : "dropfile_43.maxpat",
					"numinlets" : 0,
					"numoutlets" : 1,
					"offset" : [ 0.0, 0.0 ],
					"outlettype" : [ "" ],
					"patching_rect" : [ 972.333313, 84.0, 60.0, 60.0 ],
					"presentation" : 1,
					"presentation_rect" : [ 972.333313, 84.0, 60.0, 60.0 ],
					"varname" : "dropfile_43",
					"viewvisibility" : 1
				}

			}
, 			{
				"box" : 				{
					"bgmode" : 0,
					"border" : 0,
					"clickthrough" : 0,
					"enablehscroll" : 0,
					"enablevscroll" : 0,
					"id" : "obj-54",
					"lockeddragscroll" : 0,
					"maxclass" : "bpatcher",
					"name" : "dropfile_47.maxpat",
					"numinlets" : 0,
					"numoutlets" : 1,
					"offset" : [ 0.0, 0.0 ],
					"outlettype" : [ "" ],
					"patching_rect" : [ 972.333374, 22.0, 60.0, 60.0 ],
					"presentation" : 1,
					"presentation_rect" : [ 972.333374, 22.0, 60.0, 60.0 ],
					"varname" : "dropfile_47",
					"viewvisibility" : 1
				}

			}
, 			{
				"box" : 				{
					"bgmode" : 0,
					"border" : 0,
					"clickthrough" : 0,
					"enablehscroll" : 0,
					"enablevscroll" : 0,
					"id" : "obj-55",
					"lockeddragscroll" : 0,
					"maxclass" : "bpatcher",
					"name" : "dropfile_39.maxpat",
					"numinlets" : 0,
					"numoutlets" : 1,
					"offset" : [ 0.0, 0.0 ],
					"outlettype" : [ "" ],
					"patching_rect" : [ 972.333313, 146.0, 60.0, 60.0 ],
					"presentation" : 1,
					"presentation_rect" : [ 972.333313, 146.0, 60.0, 60.0 ],
					"varname" : "dropfile_39",
					"viewvisibility" : 1
				}

			}
, 			{
				"box" : 				{
					"bgmode" : 0,
					"border" : 0,
					"clickthrough" : 0,
					"enablehscroll" : 0,
					"enablevscroll" : 0,
					"id" : "obj-56",
					"lockeddragscroll" : 0,
					"maxclass" : "bpatcher",
					"name" : "dropfile_42.maxpat",
					"numinlets" : 0,
					"numoutlets" : 1,
					"offset" : [ 0.0, 0.0 ],
					"outlettype" : [ "" ],
					"patching_rect" : [ 910.333313, 84.0, 60.0, 60.0 ],
					"presentation" : 1,
					"presentation_rect" : [ 910.333313, 84.0, 60.0, 60.0 ],
					"varname" : "dropfile_42",
					"viewvisibility" : 1
				}

			}
, 			{
				"box" : 				{
					"bgmode" : 0,
					"border" : 0,
					"clickthrough" : 0,
					"enablehscroll" : 0,
					"enablevscroll" : 0,
					"id" : "obj-57",
					"lockeddragscroll" : 0,
					"maxclass" : "bpatcher",
					"name" : "dropfile_46.maxpat",
					"numinlets" : 0,
					"numoutlets" : 1,
					"offset" : [ 0.0, 0.0 ],
					"outlettype" : [ "" ],
					"patching_rect" : [ 910.333313, 22.0, 60.0, 60.0 ],
					"presentation" : 1,
					"presentation_rect" : [ 910.333313, 22.0, 60.0, 60.0 ],
					"varname" : "dropfile_46",
					"viewvisibility" : 1
				}

			}
, 			{
				"box" : 				{
					"bgmode" : 0,
					"border" : 0,
					"clickthrough" : 0,
					"enablehscroll" : 0,
					"enablevscroll" : 0,
					"id" : "obj-58",
					"lockeddragscroll" : 0,
					"maxclass" : "bpatcher",
					"name" : "dropfile_38.maxpat",
					"numinlets" : 0,
					"numoutlets" : 1,
					"offset" : [ 0.0, 0.0 ],
					"outlettype" : [ "" ],
					"patching_rect" : [ 910.333313, 146.0, 60.0, 60.0 ],
					"presentation" : 1,
					"presentation_rect" : [ 910.333313, 146.0, 60.0, 60.0 ],
					"varname" : "dropfile_38",
					"viewvisibility" : 1
				}

			}
, 			{
				"box" : 				{
					"bgmode" : 0,
					"border" : 0,
					"clickthrough" : 0,
					"enablehscroll" : 0,
					"enablevscroll" : 0,
					"id" : "obj-60",
					"lockeddragscroll" : 0,
					"maxclass" : "bpatcher",
					"name" : "dropfile_45.maxpat",
					"numinlets" : 0,
					"numoutlets" : 1,
					"offset" : [ 0.0, 0.0 ],
					"outlettype" : [ "" ],
					"patching_rect" : [ 848.333313, 22.0, 60.0, 60.0 ],
					"presentation" : 1,
					"presentation_rect" : [ 848.333313, 22.0, 60.0, 60.0 ],
					"varname" : "dropfile_45",
					"viewvisibility" : 1
				}

			}
, 			{
				"box" : 				{
					"bgmode" : 0,
					"border" : 0,
					"clickthrough" : 0,
					"enablehscroll" : 0,
					"enablevscroll" : 0,
					"id" : "obj-61",
					"lockeddragscroll" : 0,
					"maxclass" : "bpatcher",
					"name" : "dropfile_37.maxpat",
					"numinlets" : 0,
					"numoutlets" : 1,
					"offset" : [ 0.0, 0.0 ],
					"outlettype" : [ "" ],
					"patching_rect" : [ 848.333313, 146.0, 60.0, 60.0 ],
					"presentation" : 1,
					"presentation_rect" : [ 848.333313, 146.0, 60.0, 60.0 ],
					"varname" : "dropfile_37",
					"viewvisibility" : 1
				}

			}
, 			{
				"box" : 				{
					"bgmode" : 0,
					"border" : 0,
					"clickthrough" : 0,
					"enablehscroll" : 0,
					"enablevscroll" : 0,
					"id" : "obj-62",
					"lockeddragscroll" : 0,
					"maxclass" : "bpatcher",
					"name" : "dropfile_41.maxpat",
					"numinlets" : 0,
					"numoutlets" : 1,
					"offset" : [ 0.0, 0.0 ],
					"outlettype" : [ "" ],
					"patching_rect" : [ 848.333313, 84.0, 60.0, 60.0 ],
					"presentation" : 1,
					"presentation_rect" : [ 848.333313, 84.0, 60.0, 60.0 ],
					"varname" : "dropfile_41",
					"viewvisibility" : 1
				}

			}
, 			{
				"box" : 				{
					"bgmode" : 0,
					"border" : 0,
					"clickthrough" : 0,
					"enablehscroll" : 0,
					"enablevscroll" : 0,
					"id" : "obj-63",
					"lockeddragscroll" : 0,
					"maxclass" : "bpatcher",
					"name" : "dropfile_44.maxpat",
					"numinlets" : 0,
					"numoutlets" : 1,
					"offset" : [ 0.0, 0.0 ],
					"outlettype" : [ "" ],
					"patching_rect" : [ 1034.333374, 84.0, 60.0, 60.0 ],
					"presentation" : 1,
					"presentation_rect" : [ 1034.333374, 84.0, 60.0, 60.0 ],
					"varname" : "dropfile_44",
					"viewvisibility" : 1
				}

			}
, 			{
				"box" : 				{
					"bgmode" : 0,
					"border" : 0,
					"clickthrough" : 0,
					"enablehscroll" : 0,
					"enablevscroll" : 0,
					"id" : "obj-40",
					"lockeddragscroll" : 0,
					"maxclass" : "bpatcher",
					"name" : "dropfile_28.maxpat",
					"numinlets" : 0,
					"numoutlets" : 1,
					"offset" : [ 0.0, 0.0 ],
					"outlettype" : [ "" ],
					"patching_rect" : [ 751.555542, 146.0, 60.0, 60.0 ],
					"presentation" : 1,
					"presentation_rect" : [ 751.555542, 146.0, 60.0, 60.0 ],
					"varname" : "dropfile_28",
					"viewvisibility" : 1
				}

			}
, 			{
				"box" : 				{
					"bgmode" : 0,
					"border" : 0,
					"clickthrough" : 0,
					"enablehscroll" : 0,
					"enablevscroll" : 0,
					"id" : "obj-41",
					"lockeddragscroll" : 0,
					"maxclass" : "bpatcher",
					"name" : "dropfile_32.maxpat",
					"numinlets" : 0,
					"numoutlets" : 1,
					"offset" : [ 0.0, 0.0 ],
					"outlettype" : [ "" ],
					"patching_rect" : [ 751.555542, 84.0, 60.0, 60.0 ],
					"presentation" : 1,
					"presentation_rect" : [ 751.555542, 84.0, 60.0, 60.0 ],
					"varname" : "dropfile_32",
					"viewvisibility" : 1
				}

			}
, 			{
				"box" : 				{
					"bgmode" : 0,
					"border" : 0,
					"clickthrough" : 0,
					"enablehscroll" : 0,
					"enablevscroll" : 0,
					"id" : "obj-42",
					"lockeddragscroll" : 0,
					"maxclass" : "bpatcher",
					"name" : "dropfile_36.maxpat",
					"numinlets" : 0,
					"numoutlets" : 1,
					"offset" : [ 0.0, 0.0 ],
					"outlettype" : [ "" ],
					"patching_rect" : [ 751.555542, 22.0, 60.0, 60.0 ],
					"presentation" : 1,
					"presentation_rect" : [ 751.555542, 22.0, 60.0, 60.0 ],
					"varname" : "dropfile_36",
					"viewvisibility" : 1
				}

			}
, 			{
				"box" : 				{
					"bgmode" : 0,
					"border" : 0,
					"clickthrough" : 0,
					"enablehscroll" : 0,
					"enablevscroll" : 0,
					"id" : "obj-43",
					"lockeddragscroll" : 0,
					"maxclass" : "bpatcher",
					"name" : "dropfile_27.maxpat",
					"numinlets" : 0,
					"numoutlets" : 1,
					"offset" : [ 0.0, 0.0 ],
					"outlettype" : [ "" ],
					"patching_rect" : [ 689.555542, 146.0, 60.0, 60.0 ],
					"presentation" : 1,
					"presentation_rect" : [ 689.555542, 146.0, 60.0, 60.0 ],
					"varname" : "dropfile_27",
					"viewvisibility" : 1
				}

			}
, 			{
				"box" : 				{
					"bgmode" : 0,
					"border" : 0,
					"clickthrough" : 0,
					"enablehscroll" : 0,
					"enablevscroll" : 0,
					"id" : "obj-44",
					"lockeddragscroll" : 0,
					"maxclass" : "bpatcher",
					"name" : "dropfile_31.maxpat",
					"numinlets" : 0,
					"numoutlets" : 1,
					"offset" : [ 0.0, 0.0 ],
					"outlettype" : [ "" ],
					"patching_rect" : [ 689.555542, 84.0, 60.0, 60.0 ],
					"presentation" : 1,
					"presentation_rect" : [ 689.555542, 84.0, 60.0, 60.0 ],
					"varname" : "dropfile_31",
					"viewvisibility" : 1
				}

			}
, 			{
				"box" : 				{
					"bgmode" : 0,
					"border" : 0,
					"clickthrough" : 0,
					"enablehscroll" : 0,
					"enablevscroll" : 0,
					"id" : "obj-45",
					"lockeddragscroll" : 0,
					"maxclass" : "bpatcher",
					"name" : "dropfile_35.maxpat",
					"numinlets" : 0,
					"numoutlets" : 1,
					"offset" : [ 0.0, 0.0 ],
					"outlettype" : [ "" ],
					"patching_rect" : [ 689.555542, 22.0, 60.0, 60.0 ],
					"presentation" : 1,
					"presentation_rect" : [ 689.555542, 22.0, 60.0, 60.0 ],
					"varname" : "dropfile_35",
					"viewvisibility" : 1
				}

			}
, 			{
				"box" : 				{
					"bgmode" : 0,
					"border" : 0,
					"clickthrough" : 0,
					"enablehscroll" : 0,
					"enablevscroll" : 0,
					"id" : "obj-46",
					"lockeddragscroll" : 0,
					"maxclass" : "bpatcher",
					"name" : "dropfile_26.maxpat",
					"numinlets" : 0,
					"numoutlets" : 1,
					"offset" : [ 0.0, 0.0 ],
					"outlettype" : [ "" ],
					"patching_rect" : [ 627.555542, 146.0, 60.0, 60.0 ],
					"presentation" : 1,
					"presentation_rect" : [ 627.555542, 146.0, 60.0, 60.0 ],
					"varname" : "dropfile_26",
					"viewvisibility" : 1
				}

			}
, 			{
				"box" : 				{
					"bgmode" : 0,
					"border" : 0,
					"clickthrough" : 0,
					"enablehscroll" : 0,
					"enablevscroll" : 0,
					"id" : "obj-47",
					"lockeddragscroll" : 0,
					"maxclass" : "bpatcher",
					"name" : "dropfile_30.maxpat",
					"numinlets" : 0,
					"numoutlets" : 1,
					"offset" : [ 0.0, 0.0 ],
					"outlettype" : [ "" ],
					"patching_rect" : [ 627.555542, 84.0, 60.0, 60.0 ],
					"presentation" : 1,
					"presentation_rect" : [ 627.555542, 84.0, 60.0, 60.0 ],
					"varname" : "dropfile_30",
					"viewvisibility" : 1
				}

			}
, 			{
				"box" : 				{
					"bgmode" : 0,
					"border" : 0,
					"clickthrough" : 0,
					"enablehscroll" : 0,
					"enablevscroll" : 0,
					"id" : "obj-48",
					"lockeddragscroll" : 0,
					"maxclass" : "bpatcher",
					"name" : "dropfile_34.maxpat",
					"numinlets" : 0,
					"numoutlets" : 1,
					"offset" : [ 0.0, 0.0 ],
					"outlettype" : [ "" ],
					"patching_rect" : [ 627.555542, 22.0, 60.0, 60.0 ],
					"presentation" : 1,
					"presentation_rect" : [ 627.555542, 22.0, 60.0, 60.0 ],
					"varname" : "dropfile_34",
					"viewvisibility" : 1
				}

			}
, 			{
				"box" : 				{
					"bgmode" : 0,
					"border" : 0,
					"clickthrough" : 0,
					"enablehscroll" : 0,
					"enablevscroll" : 0,
					"id" : "obj-49",
					"lockeddragscroll" : 0,
					"maxclass" : "bpatcher",
					"name" : "dropfile_25.maxpat",
					"numinlets" : 0,
					"numoutlets" : 1,
					"offset" : [ 0.0, 0.0 ],
					"outlettype" : [ "" ],
					"patching_rect" : [ 565.555542, 146.0, 60.0, 60.0 ],
					"presentation" : 1,
					"presentation_rect" : [ 565.555542, 146.0, 60.0, 60.0 ],
					"varname" : "dropfile_25",
					"viewvisibility" : 1
				}

			}
, 			{
				"box" : 				{
					"bgmode" : 0,
					"border" : 0,
					"clickthrough" : 0,
					"enablehscroll" : 0,
					"enablevscroll" : 0,
					"id" : "obj-50",
					"lockeddragscroll" : 0,
					"maxclass" : "bpatcher",
					"name" : "dropfile_29.maxpat",
					"numinlets" : 0,
					"numoutlets" : 1,
					"offset" : [ 0.0, 0.0 ],
					"outlettype" : [ "" ],
					"patching_rect" : [ 565.555542, 84.0, 60.0, 60.0 ],
					"presentation" : 1,
					"presentation_rect" : [ 565.555542, 84.0, 60.0, 60.0 ],
					"varname" : "dropfile_29",
					"viewvisibility" : 1
				}

			}
, 			{
				"box" : 				{
					"bgmode" : 0,
					"border" : 0,
					"clickthrough" : 0,
					"enablehscroll" : 0,
					"enablevscroll" : 0,
					"id" : "obj-51",
					"lockeddragscroll" : 0,
					"maxclass" : "bpatcher",
					"name" : "dropfile_33.maxpat",
					"numinlets" : 0,
					"numoutlets" : 1,
					"offset" : [ 0.0, 0.0 ],
					"outlettype" : [ "" ],
					"patching_rect" : [ 565.555542, 22.0, 60.0, 60.0 ],
					"presentation" : 1,
					"presentation_rect" : [ 565.555542, 22.0, 60.0, 60.0 ],
					"varname" : "dropfile_33",
					"viewvisibility" : 1
				}

			}
, 			{
				"box" : 				{
					"bgmode" : 0,
					"border" : 0,
					"clickthrough" : 0,
					"enablehscroll" : 0,
					"enablevscroll" : 0,
					"id" : "obj-37",
					"lockeddragscroll" : 0,
					"maxclass" : "bpatcher",
					"name" : "dropfile_16.maxpat",
					"numinlets" : 0,
					"numoutlets" : 1,
					"offset" : [ 0.0, 0.0 ],
					"outlettype" : [ "" ],
					"patching_rect" : [ 468.777771, 146.0, 60.0, 60.0 ],
					"presentation" : 1,
					"presentation_rect" : [ 468.777771, 146.0, 60.0, 60.0 ],
					"varname" : "dropfile_16",
					"viewvisibility" : 1
				}

			}
, 			{
				"box" : 				{
					"bgmode" : 0,
					"border" : 0,
					"clickthrough" : 0,
					"enablehscroll" : 0,
					"enablevscroll" : 0,
					"id" : "obj-38",
					"lockeddragscroll" : 0,
					"maxclass" : "bpatcher",
					"name" : "dropfile_20.maxpat",
					"numinlets" : 0,
					"numoutlets" : 1,
					"offset" : [ 0.0, 0.0 ],
					"outlettype" : [ "" ],
					"patching_rect" : [ 468.777771, 84.0, 60.0, 60.0 ],
					"presentation" : 1,
					"presentation_rect" : [ 468.777771, 84.0, 60.0, 60.0 ],
					"varname" : "dropfile_20",
					"viewvisibility" : 1
				}

			}
, 			{
				"box" : 				{
					"bgmode" : 0,
					"border" : 0,
					"clickthrough" : 0,
					"enablehscroll" : 0,
					"enablevscroll" : 0,
					"id" : "obj-39",
					"lockeddragscroll" : 0,
					"maxclass" : "bpatcher",
					"name" : "dropfile_24.maxpat",
					"numinlets" : 0,
					"numoutlets" : 1,
					"offset" : [ 0.0, 0.0 ],
					"outlettype" : [ "" ],
					"patching_rect" : [ 468.777771, 22.0, 60.0, 60.0 ],
					"presentation" : 1,
					"presentation_rect" : [ 468.777771, 22.0, 60.0, 60.0 ],
					"varname" : "dropfile_24",
					"viewvisibility" : 1
				}

			}
, 			{
				"box" : 				{
					"bgmode" : 0,
					"border" : 0,
					"clickthrough" : 0,
					"enablehscroll" : 0,
					"enablevscroll" : 0,
					"id" : "obj-34",
					"lockeddragscroll" : 0,
					"maxclass" : "bpatcher",
					"name" : "dropfile_15.maxpat",
					"numinlets" : 0,
					"numoutlets" : 1,
					"offset" : [ 0.0, 0.0 ],
					"outlettype" : [ "" ],
					"patching_rect" : [ 406.777771, 146.0, 60.0, 60.0 ],
					"presentation" : 1,
					"presentation_rect" : [ 406.777771, 146.0, 60.0, 60.0 ],
					"varname" : "dropfile_15",
					"viewvisibility" : 1
				}

			}
, 			{
				"box" : 				{
					"bgmode" : 0,
					"border" : 0,
					"clickthrough" : 0,
					"enablehscroll" : 0,
					"enablevscroll" : 0,
					"id" : "obj-35",
					"lockeddragscroll" : 0,
					"maxclass" : "bpatcher",
					"name" : "dropfile_19.maxpat",
					"numinlets" : 0,
					"numoutlets" : 1,
					"offset" : [ 0.0, 0.0 ],
					"outlettype" : [ "" ],
					"patching_rect" : [ 406.777771, 84.0, 60.0, 60.0 ],
					"presentation" : 1,
					"presentation_rect" : [ 406.777771, 84.0, 60.0, 60.0 ],
					"varname" : "dropfile_19",
					"viewvisibility" : 1
				}

			}
, 			{
				"box" : 				{
					"bgmode" : 0,
					"border" : 0,
					"clickthrough" : 0,
					"enablehscroll" : 0,
					"enablevscroll" : 0,
					"id" : "obj-36",
					"lockeddragscroll" : 0,
					"maxclass" : "bpatcher",
					"name" : "dropfile_23.maxpat",
					"numinlets" : 0,
					"numoutlets" : 1,
					"offset" : [ 0.0, 0.0 ],
					"outlettype" : [ "" ],
					"patching_rect" : [ 406.777771, 22.0, 60.0, 60.0 ],
					"presentation" : 1,
					"presentation_rect" : [ 406.777771, 22.0, 60.0, 60.0 ],
					"varname" : "dropfile_23",
					"viewvisibility" : 1
				}

			}
, 			{
				"box" : 				{
					"bgmode" : 0,
					"border" : 0,
					"clickthrough" : 0,
					"enablehscroll" : 0,
					"enablevscroll" : 0,
					"id" : "obj-31",
					"lockeddragscroll" : 0,
					"maxclass" : "bpatcher",
					"name" : "dropfile_14.maxpat",
					"numinlets" : 0,
					"numoutlets" : 1,
					"offset" : [ 0.0, 0.0 ],
					"outlettype" : [ "" ],
					"patching_rect" : [ 344.777771, 146.0, 60.0, 60.0 ],
					"presentation" : 1,
					"presentation_rect" : [ 344.777771, 146.0, 60.0, 60.0 ],
					"varname" : "dropfile_14",
					"viewvisibility" : 1
				}

			}
, 			{
				"box" : 				{
					"bgmode" : 0,
					"border" : 0,
					"clickthrough" : 0,
					"enablehscroll" : 0,
					"enablevscroll" : 0,
					"id" : "obj-32",
					"lockeddragscroll" : 0,
					"maxclass" : "bpatcher",
					"name" : "dropfile_18.maxpat",
					"numinlets" : 0,
					"numoutlets" : 1,
					"offset" : [ 0.0, 0.0 ],
					"outlettype" : [ "" ],
					"patching_rect" : [ 344.777771, 84.0, 60.0, 60.0 ],
					"presentation" : 1,
					"presentation_rect" : [ 344.777771, 84.0, 60.0, 60.0 ],
					"varname" : "dropfile_18",
					"viewvisibility" : 1
				}

			}
, 			{
				"box" : 				{
					"bgmode" : 0,
					"border" : 0,
					"clickthrough" : 0,
					"enablehscroll" : 0,
					"enablevscroll" : 0,
					"id" : "obj-33",
					"lockeddragscroll" : 0,
					"maxclass" : "bpatcher",
					"name" : "dropfile_22.maxpat",
					"numinlets" : 0,
					"numoutlets" : 1,
					"offset" : [ 0.0, 0.0 ],
					"outlettype" : [ "" ],
					"patching_rect" : [ 344.777771, 22.0, 60.0, 60.0 ],
					"presentation" : 1,
					"presentation_rect" : [ 344.777771, 22.0, 60.0, 60.0 ],
					"varname" : "dropfile_22",
					"viewvisibility" : 1
				}

			}
, 			{
				"box" : 				{
					"bgmode" : 0,
					"border" : 0,
					"clickthrough" : 0,
					"enablehscroll" : 0,
					"enablevscroll" : 0,
					"id" : "obj-30",
					"lockeddragscroll" : 0,
					"maxclass" : "bpatcher",
					"name" : "dropfile_13.maxpat",
					"numinlets" : 0,
					"numoutlets" : 1,
					"offset" : [ 0.0, 0.0 ],
					"outlettype" : [ "" ],
					"patching_rect" : [ 282.777771, 146.0, 60.0, 60.0 ],
					"presentation" : 1,
					"presentation_rect" : [ 282.777771, 146.0, 60.0, 60.0 ],
					"varname" : "dropfile_13",
					"viewvisibility" : 1
				}

			}
, 			{
				"box" : 				{
					"bgmode" : 0,
					"border" : 0,
					"clickthrough" : 0,
					"enablehscroll" : 0,
					"enablevscroll" : 0,
					"id" : "obj-29",
					"lockeddragscroll" : 0,
					"maxclass" : "bpatcher",
					"name" : "dropfile_17.maxpat",
					"numinlets" : 0,
					"numoutlets" : 1,
					"offset" : [ 0.0, 0.0 ],
					"outlettype" : [ "" ],
					"patching_rect" : [ 282.777771, 84.0, 60.0, 60.0 ],
					"presentation" : 1,
					"presentation_rect" : [ 282.777771, 84.0, 60.0, 60.0 ],
					"varname" : "dropfile_17",
					"viewvisibility" : 1
				}

			}
, 			{
				"box" : 				{
					"bgmode" : 0,
					"border" : 0,
					"clickthrough" : 0,
					"enablehscroll" : 0,
					"enablevscroll" : 0,
					"id" : "obj-28",
					"lockeddragscroll" : 0,
					"maxclass" : "bpatcher",
					"name" : "dropfile_21.maxpat",
					"numinlets" : 0,
					"numoutlets" : 1,
					"offset" : [ 0.0, 0.0 ],
					"outlettype" : [ "" ],
					"patching_rect" : [ 282.777771, 22.0, 60.0, 60.0 ],
					"presentation" : 1,
					"presentation_rect" : [ 282.777771, 22.0, 60.0, 60.0 ],
					"varname" : "dropfile_21",
					"viewvisibility" : 1
				}

			}
, 			{
				"box" : 				{
					"comment" : "Dropfile Out",
					"id" : "obj-16",
					"index" : 0,
					"maxclass" : "outlet",
					"numinlets" : 1,
					"numoutlets" : 0,
					"patching_rect" : [ 0.0, 600.5, 30.0, 30.0 ],
					"style" : ""
				}

			}
, 			{
				"box" : 				{
					"id" : "obj-14",
					"maxclass" : "comment",
					"numinlets" : 1,
					"numoutlets" : 0,
					"patching_rect" : [ 0.0, 0.0, 60.0, 20.0 ],
					"presentation" : 1,
					"presentation_rect" : [ 0.0, 0.0, 60.0, 20.0 ],
					"style" : "",
					"text" : "Bank C"
				}

			}
, 			{
				"box" : 				{
					"bgmode" : 0,
					"border" : 0,
					"clickthrough" : 0,
					"enablehscroll" : 0,
					"enablevscroll" : 0,
					"id" : "obj-12",
					"lockeddragscroll" : 0,
					"maxclass" : "bpatcher",
					"name" : "dropfile_12.maxpat",
					"numinlets" : 0,
					"numoutlets" : 1,
					"offset" : [ 0.0, 0.0 ],
					"outlettype" : [ "" ],
					"patching_rect" : [ 186.0, 22.0, 60.0, 60.0 ],
					"presentation" : 1,
					"presentation_rect" : [ 186.0, 22.0, 60.0, 60.0 ],
					"varname" : "dropfile_12",
					"viewvisibility" : 1
				}

			}
, 			{
				"box" : 				{
					"bgmode" : 0,
					"border" : 0,
					"clickthrough" : 0,
					"enablehscroll" : 0,
					"enablevscroll" : 0,
					"id" : "obj-11",
					"lockeddragscroll" : 0,
					"maxclass" : "bpatcher",
					"name" : "dropfile_11.maxpat",
					"numinlets" : 0,
					"numoutlets" : 1,
					"offset" : [ 0.0, 0.0 ],
					"outlettype" : [ "" ],
					"patching_rect" : [ 124.0, 22.0, 60.0, 60.0 ],
					"presentation" : 1,
					"presentation_rect" : [ 124.0, 22.0, 60.0, 60.0 ],
					"varname" : "dropfile_11",
					"viewvisibility" : 1
				}

			}
, 			{
				"box" : 				{
					"bgmode" : 0,
					"border" : 0,
					"clickthrough" : 0,
					"enablehscroll" : 0,
					"enablevscroll" : 0,
					"id" : "obj-10",
					"lockeddragscroll" : 0,
					"maxclass" : "bpatcher",
					"name" : "dropfile_10.maxpat",
					"numinlets" : 0,
					"numoutlets" : 1,
					"offset" : [ 0.0, 0.0 ],
					"outlettype" : [ "" ],
					"patching_rect" : [ 62.0, 22.0, 60.0, 60.0 ],
					"presentation" : 1,
					"presentation_rect" : [ 62.0, 22.0, 60.0, 60.0 ],
					"varname" : "dropfile_10",
					"viewvisibility" : 1
				}

			}
, 			{
				"box" : 				{
					"bgmode" : 0,
					"border" : 0,
					"clickthrough" : 0,
					"enablehscroll" : 0,
					"enablevscroll" : 0,
					"id" : "obj-9",
					"lockeddragscroll" : 0,
					"maxclass" : "bpatcher",
					"name" : "dropfile_9.maxpat",
					"numinlets" : 0,
					"numoutlets" : 1,
					"offset" : [ 0.0, 0.0 ],
					"outlettype" : [ "" ],
					"patching_rect" : [ 0.0, 22.0, 60.0, 60.0 ],
					"presentation" : 1,
					"presentation_rect" : [ 0.0, 22.0, 60.0, 60.0 ],
					"varname" : "dropfile_9",
					"viewvisibility" : 1
				}

			}
, 			{
				"box" : 				{
					"bgmode" : 0,
					"border" : 0,
					"clickthrough" : 0,
					"enablehscroll" : 0,
					"enablevscroll" : 0,
					"id" : "obj-8",
					"lockeddragscroll" : 0,
					"maxclass" : "bpatcher",
					"name" : "dropfile_8.maxpat",
					"numinlets" : 0,
					"numoutlets" : 1,
					"offset" : [ 0.0, 0.0 ],
					"outlettype" : [ "" ],
					"patching_rect" : [ 186.0, 84.0, 60.0, 60.0 ],
					"presentation" : 1,
					"presentation_rect" : [ 186.0, 84.0, 60.0, 60.0 ],
					"varname" : "dropfile_8",
					"viewvisibility" : 1
				}

			}
, 			{
				"box" : 				{
					"bgmode" : 0,
					"border" : 0,
					"clickthrough" : 0,
					"enablehscroll" : 0,
					"enablevscroll" : 0,
					"id" : "obj-7",
					"lockeddragscroll" : 0,
					"maxclass" : "bpatcher",
					"name" : "dropfile_7.maxpat",
					"numinlets" : 0,
					"numoutlets" : 1,
					"offset" : [ 0.0, 0.0 ],
					"outlettype" : [ "" ],
					"patching_rect" : [ 124.0, 84.0, 60.0, 60.0 ],
					"presentation" : 1,
					"presentation_rect" : [ 124.0, 84.0, 60.0, 60.0 ],
					"varname" : "dropfile_7",
					"viewvisibility" : 1
				}

			}
, 			{
				"box" : 				{
					"bgmode" : 0,
					"border" : 0,
					"clickthrough" : 0,
					"enablehscroll" : 0,
					"enablevscroll" : 0,
					"id" : "obj-6",
					"lockeddragscroll" : 0,
					"maxclass" : "bpatcher",
					"name" : "dropfile_6.maxpat",
					"numinlets" : 0,
					"numoutlets" : 1,
					"offset" : [ 0.0, 0.0 ],
					"outlettype" : [ "" ],
					"patching_rect" : [ 62.0, 84.0, 60.0, 60.0 ],
					"presentation" : 1,
					"presentation_rect" : [ 62.0, 84.0, 60.0, 60.0 ],
					"varname" : "dropfile_6",
					"viewvisibility" : 1
				}

			}
, 			{
				"box" : 				{
					"bgmode" : 0,
					"border" : 0,
					"clickthrough" : 0,
					"enablehscroll" : 0,
					"enablevscroll" : 0,
					"id" : "obj-5",
					"lockeddragscroll" : 0,
					"maxclass" : "bpatcher",
					"name" : "dropfile_5.maxpat",
					"numinlets" : 0,
					"numoutlets" : 1,
					"offset" : [ 0.0, 0.0 ],
					"outlettype" : [ "" ],
					"patching_rect" : [ 0.0, 84.0, 60.0, 60.0 ],
					"presentation" : 1,
					"presentation_rect" : [ 0.0, 84.0, 60.0, 60.0 ],
					"varname" : "dropfile_5",
					"viewvisibility" : 1
				}

			}
, 			{
				"box" : 				{
					"bgmode" : 0,
					"border" : 0,
					"clickthrough" : 0,
					"enablehscroll" : 0,
					"enablevscroll" : 0,
					"id" : "obj-4",
					"lockeddragscroll" : 0,
					"maxclass" : "bpatcher",
					"name" : "dropfile_4.maxpat",
					"numinlets" : 0,
					"numoutlets" : 1,
					"offset" : [ 0.0, 0.0 ],
					"outlettype" : [ "" ],
					"patching_rect" : [ 186.0, 146.0, 60.0, 60.0 ],
					"presentation" : 1,
					"presentation_rect" : [ 186.0, 146.0, 60.0, 60.0 ],
					"varname" : "dropfile_4",
					"viewvisibility" : 1
				}

			}
, 			{
				"box" : 				{
					"bgmode" : 0,
					"border" : 0,
					"clickthrough" : 0,
					"enablehscroll" : 0,
					"enablevscroll" : 0,
					"id" : "obj-3",
					"lockeddragscroll" : 0,
					"maxclass" : "bpatcher",
					"name" : "dropfile_3.maxpat",
					"numinlets" : 0,
					"numoutlets" : 1,
					"offset" : [ 0.0, 0.0 ],
					"outlettype" : [ "" ],
					"patching_rect" : [ 124.0, 146.0, 60.0, 60.0 ],
					"presentation" : 1,
					"presentation_rect" : [ 124.0, 146.0, 60.0, 60.0 ],
					"varname" : "dropfile_3",
					"viewvisibility" : 1
				}

			}
, 			{
				"box" : 				{
					"bgmode" : 0,
					"border" : 0,
					"clickthrough" : 0,
					"enablehscroll" : 0,
					"enablevscroll" : 0,
					"id" : "obj-2",
					"lockeddragscroll" : 0,
					"maxclass" : "bpatcher",
					"name" : "dropfile_2.maxpat",
					"numinlets" : 0,
					"numoutlets" : 1,
					"offset" : [ 0.0, 0.0 ],
					"outlettype" : [ "" ],
					"patching_rect" : [ 62.0, 146.0, 60.0, 60.0 ],
					"presentation" : 1,
					"presentation_rect" : [ 62.0, 146.0, 60.0, 60.0 ],
					"varname" : "dropfile_2",
					"viewvisibility" : 1
				}

			}
, 			{
				"box" : 				{
					"bgmode" : 0,
					"border" : 0,
					"clickthrough" : 0,
					"enablehscroll" : 0,
					"enablevscroll" : 0,
					"id" : "obj-1",
					"lockeddragscroll" : 0,
					"maxclass" : "bpatcher",
					"name" : "dropfile_1.maxpat",
					"numinlets" : 0,
					"numoutlets" : 1,
					"offset" : [ 0.0, 0.0 ],
					"outlettype" : [ "" ],
					"patching_rect" : [ 0.0, 146.0, 60.0, 60.0 ],
					"presentation" : 1,
					"presentation_rect" : [ 0.0, 146.0, 60.0, 60.0 ],
					"varname" : "dropfile_1",
					"viewvisibility" : 1
				}

			}
 ],
		"lines" : [ 			{
				"patchline" : 				{
					"destination" : [ "obj-16", 0 ],
					"source" : [ "obj-1", 0 ]
				}

			}
, 			{
				"patchline" : 				{
					"destination" : [ "obj-16", 0 ],
					"source" : [ "obj-10", 0 ]
				}

			}
, 			{
				"patchline" : 				{
					"destination" : [ "obj-16", 0 ],
					"source" : [ "obj-100", 0 ]
				}

			}
, 			{
				"patchline" : 				{
					"destination" : [ "obj-16", 0 ],
					"source" : [ "obj-101", 0 ]
				}

			}
, 			{
				"patchline" : 				{
					"destination" : [ "obj-16", 0 ],
					"source" : [ "obj-102", 0 ]
				}

			}
, 			{
				"patchline" : 				{
					"destination" : [ "obj-16", 0 ],
					"source" : [ "obj-103", 0 ]
				}

			}
, 			{
				"patchline" : 				{
					"destination" : [ "obj-16", 0 ],
					"source" : [ "obj-104", 0 ]
				}

			}
, 			{
				"patchline" : 				{
					"destination" : [ "obj-16", 0 ],
					"source" : [ "obj-105", 0 ]
				}

			}
, 			{
				"patchline" : 				{
					"destination" : [ "obj-16", 0 ],
					"source" : [ "obj-106", 0 ]
				}

			}
, 			{
				"patchline" : 				{
					"destination" : [ "obj-16", 0 ],
					"source" : [ "obj-107", 0 ]
				}

			}
, 			{
				"patchline" : 				{
					"destination" : [ "obj-16", 0 ],
					"source" : [ "obj-108", 0 ]
				}

			}
, 			{
				"patchline" : 				{
					"destination" : [ "obj-16", 0 ],
					"source" : [ "obj-109", 0 ]
				}

			}
, 			{
				"patchline" : 				{
					"destination" : [ "obj-16", 0 ],
					"source" : [ "obj-11", 0 ]
				}

			}
, 			{
				"patchline" : 				{
					"destination" : [ "obj-16", 0 ],
					"source" : [ "obj-110", 0 ]
				}

			}
, 			{
				"patchline" : 				{
					"destination" : [ "obj-16", 0 ],
					"source" : [ "obj-111", 0 ]
				}

			}
, 			{
				"patchline" : 				{
					"destination" : [ "obj-16", 0 ],
					"source" : [ "obj-12", 0 ]
				}

			}
, 			{
				"patchline" : 				{
					"destination" : [ "obj-16", 0 ],
					"source" : [ "obj-13", 0 ]
				}

			}
, 			{
				"patchline" : 				{
					"destination" : [ "obj-16", 0 ],
					"source" : [ "obj-2", 0 ]
				}

			}
, 			{
				"patchline" : 				{
					"destination" : [ "obj-16", 0 ],
					"source" : [ "obj-28", 0 ]
				}

			}
, 			{
				"patchline" : 				{
					"destination" : [ "obj-16", 0 ],
					"source" : [ "obj-29", 0 ]
				}

			}
, 			{
				"patchline" : 				{
					"destination" : [ "obj-16", 0 ],
					"source" : [ "obj-3", 0 ]
				}

			}
, 			{
				"patchline" : 				{
					"destination" : [ "obj-16", 0 ],
					"source" : [ "obj-30", 0 ]
				}

			}
, 			{
				"patchline" : 				{
					"destination" : [ "obj-16", 0 ],
					"source" : [ "obj-31", 0 ]
				}

			}
, 			{
				"patchline" : 				{
					"destination" : [ "obj-16", 0 ],
					"source" : [ "obj-32", 0 ]
				}

			}
, 			{
				"patchline" : 				{
					"destination" : [ "obj-16", 0 ],
					"source" : [ "obj-33", 0 ]
				}

			}
, 			{
				"patchline" : 				{
					"destination" : [ "obj-16", 0 ],
					"source" : [ "obj-34", 0 ]
				}

			}
, 			{
				"patchline" : 				{
					"destination" : [ "obj-16", 0 ],
					"source" : [ "obj-35", 0 ]
				}

			}
, 			{
				"patchline" : 				{
					"destination" : [ "obj-16", 0 ],
					"source" : [ "obj-36", 0 ]
				}

			}
, 			{
				"patchline" : 				{
					"destination" : [ "obj-16", 0 ],
					"source" : [ "obj-37", 0 ]
				}

			}
, 			{
				"patchline" : 				{
					"destination" : [ "obj-16", 0 ],
					"source" : [ "obj-38", 0 ]
				}

			}
, 			{
				"patchline" : 				{
					"destination" : [ "obj-16", 0 ],
					"source" : [ "obj-39", 0 ]
				}

			}
, 			{
				"patchline" : 				{
					"destination" : [ "obj-16", 0 ],
					"source" : [ "obj-4", 0 ]
				}

			}
, 			{
				"patchline" : 				{
					"destination" : [ "obj-16", 0 ],
					"source" : [ "obj-40", 0 ]
				}

			}
, 			{
				"patchline" : 				{
					"destination" : [ "obj-16", 0 ],
					"source" : [ "obj-41", 0 ]
				}

			}
, 			{
				"patchline" : 				{
					"destination" : [ "obj-16", 0 ],
					"source" : [ "obj-42", 0 ]
				}

			}
, 			{
				"patchline" : 				{
					"destination" : [ "obj-16", 0 ],
					"source" : [ "obj-43", 0 ]
				}

			}
, 			{
				"patchline" : 				{
					"destination" : [ "obj-16", 0 ],
					"source" : [ "obj-44", 0 ]
				}

			}
, 			{
				"patchline" : 				{
					"destination" : [ "obj-16", 0 ],
					"source" : [ "obj-45", 0 ]
				}

			}
, 			{
				"patchline" : 				{
					"destination" : [ "obj-16", 0 ],
					"source" : [ "obj-46", 0 ]
				}

			}
, 			{
				"patchline" : 				{
					"destination" : [ "obj-16", 0 ],
					"source" : [ "obj-47", 0 ]
				}

			}
, 			{
				"patchline" : 				{
					"destination" : [ "obj-16", 0 ],
					"source" : [ "obj-48", 0 ]
				}

			}
, 			{
				"patchline" : 				{
					"destination" : [ "obj-16", 0 ],
					"source" : [ "obj-49", 0 ]
				}

			}
, 			{
				"patchline" : 				{
					"destination" : [ "obj-16", 0 ],
					"source" : [ "obj-5", 0 ]
				}

			}
, 			{
				"patchline" : 				{
					"destination" : [ "obj-16", 0 ],
					"source" : [ "obj-50", 0 ]
				}

			}
, 			{
				"patchline" : 				{
					"destination" : [ "obj-16", 0 ],
					"source" : [ "obj-51", 0 ]
				}

			}
, 			{
				"patchline" : 				{
					"destination" : [ "obj-16", 0 ],
					"source" : [ "obj-52", 0 ]
				}

			}
, 			{
				"patchline" : 				{
					"destination" : [ "obj-16", 0 ],
					"source" : [ "obj-53", 0 ]
				}

			}
, 			{
				"patchline" : 				{
					"destination" : [ "obj-16", 0 ],
					"source" : [ "obj-54", 0 ]
				}

			}
, 			{
				"patchline" : 				{
					"destination" : [ "obj-16", 0 ],
					"source" : [ "obj-55", 0 ]
				}

			}
, 			{
				"patchline" : 				{
					"destination" : [ "obj-16", 0 ],
					"source" : [ "obj-56", 0 ]
				}

			}
, 			{
				"patchline" : 				{
					"destination" : [ "obj-16", 0 ],
					"source" : [ "obj-57", 0 ]
				}

			}
, 			{
				"patchline" : 				{
					"destination" : [ "obj-16", 0 ],
					"source" : [ "obj-58", 0 ]
				}

			}
, 			{
				"patchline" : 				{
					"destination" : [ "obj-16", 0 ],
					"source" : [ "obj-6", 0 ]
				}

			}
, 			{
				"patchline" : 				{
					"destination" : [ "obj-16", 0 ],
					"source" : [ "obj-60", 0 ]
				}

			}
, 			{
				"patchline" : 				{
					"destination" : [ "obj-16", 0 ],
					"source" : [ "obj-61", 0 ]
				}

			}
, 			{
				"patchline" : 				{
					"destination" : [ "obj-16", 0 ],
					"source" : [ "obj-62", 0 ]
				}

			}
, 			{
				"patchline" : 				{
					"destination" : [ "obj-16", 0 ],
					"source" : [ "obj-63", 0 ]
				}

			}
, 			{
				"patchline" : 				{
					"destination" : [ "obj-16", 0 ],
					"source" : [ "obj-64", 0 ]
				}

			}
, 			{
				"patchline" : 				{
					"destination" : [ "obj-16", 0 ],
					"source" : [ "obj-65", 0 ]
				}

			}
, 			{
				"patchline" : 				{
					"destination" : [ "obj-16", 0 ],
					"source" : [ "obj-66", 0 ]
				}

			}
, 			{
				"patchline" : 				{
					"destination" : [ "obj-16", 0 ],
					"source" : [ "obj-67", 0 ]
				}

			}
, 			{
				"patchline" : 				{
					"destination" : [ "obj-16", 0 ],
					"source" : [ "obj-68", 0 ]
				}

			}
, 			{
				"patchline" : 				{
					"destination" : [ "obj-16", 0 ],
					"source" : [ "obj-69", 0 ]
				}

			}
, 			{
				"patchline" : 				{
					"destination" : [ "obj-16", 0 ],
					"source" : [ "obj-7", 0 ]
				}

			}
, 			{
				"patchline" : 				{
					"destination" : [ "obj-16", 0 ],
					"source" : [ "obj-70", 0 ]
				}

			}
, 			{
				"patchline" : 				{
					"destination" : [ "obj-16", 0 ],
					"source" : [ "obj-71", 0 ]
				}

			}
, 			{
				"patchline" : 				{
					"destination" : [ "obj-16", 0 ],
					"source" : [ "obj-72", 0 ]
				}

			}
, 			{
				"patchline" : 				{
					"destination" : [ "obj-16", 0 ],
					"source" : [ "obj-73", 0 ]
				}

			}
, 			{
				"patchline" : 				{
					"destination" : [ "obj-16", 0 ],
					"source" : [ "obj-74", 0 ]
				}

			}
, 			{
				"patchline" : 				{
					"destination" : [ "obj-16", 0 ],
					"source" : [ "obj-75", 0 ]
				}

			}
, 			{
				"patchline" : 				{
					"destination" : [ "obj-16", 0 ],
					"source" : [ "obj-76", 0 ]
				}

			}
, 			{
				"patchline" : 				{
					"destination" : [ "obj-16", 0 ],
					"source" : [ "obj-77", 0 ]
				}

			}
, 			{
				"patchline" : 				{
					"destination" : [ "obj-16", 0 ],
					"source" : [ "obj-78", 0 ]
				}

			}
, 			{
				"patchline" : 				{
					"destination" : [ "obj-16", 0 ],
					"source" : [ "obj-79", 0 ]
				}

			}
, 			{
				"patchline" : 				{
					"destination" : [ "obj-16", 0 ],
					"source" : [ "obj-8", 0 ]
				}

			}
, 			{
				"patchline" : 				{
					"destination" : [ "obj-16", 0 ],
					"source" : [ "obj-80", 0 ]
				}

			}
, 			{
				"patchline" : 				{
					"destination" : [ "obj-16", 0 ],
					"source" : [ "obj-81", 0 ]
				}

			}
, 			{
				"patchline" : 				{
					"destination" : [ "obj-16", 0 ],
					"source" : [ "obj-82", 0 ]
				}

			}
, 			{
				"patchline" : 				{
					"destination" : [ "obj-16", 0 ],
					"source" : [ "obj-83", 0 ]
				}

			}
, 			{
				"patchline" : 				{
					"destination" : [ "obj-16", 0 ],
					"source" : [ "obj-84", 0 ]
				}

			}
, 			{
				"patchline" : 				{
					"destination" : [ "obj-16", 0 ],
					"source" : [ "obj-85", 0 ]
				}

			}
, 			{
				"patchline" : 				{
					"destination" : [ "obj-16", 0 ],
					"source" : [ "obj-86", 0 ]
				}

			}
, 			{
				"patchline" : 				{
					"destination" : [ "obj-16", 0 ],
					"source" : [ "obj-87", 0 ]
				}

			}
, 			{
				"patchline" : 				{
					"destination" : [ "obj-16", 0 ],
					"source" : [ "obj-88", 0 ]
				}

			}
, 			{
				"patchline" : 				{
					"destination" : [ "obj-16", 0 ],
					"source" : [ "obj-89", 0 ]
				}

			}
, 			{
				"patchline" : 				{
					"destination" : [ "obj-16", 0 ],
					"source" : [ "obj-9", 0 ]
				}

			}
, 			{
				"patchline" : 				{
					"destination" : [ "obj-16", 0 ],
					"source" : [ "obj-90", 0 ]
				}

			}
, 			{
				"patchline" : 				{
					"destination" : [ "obj-16", 0 ],
					"source" : [ "obj-91", 0 ]
				}

			}
, 			{
				"patchline" : 				{
					"destination" : [ "obj-16", 0 ],
					"source" : [ "obj-92", 0 ]
				}

			}
, 			{
				"patchline" : 				{
					"destination" : [ "obj-16", 0 ],
					"source" : [ "obj-93", 0 ]
				}

			}
, 			{
				"patchline" : 				{
					"destination" : [ "obj-16", 0 ],
					"source" : [ "obj-94", 0 ]
				}

			}
, 			{
				"patchline" : 				{
					"destination" : [ "obj-16", 0 ],
					"source" : [ "obj-95", 0 ]
				}

			}
, 			{
				"patchline" : 				{
					"destination" : [ "obj-16", 0 ],
					"source" : [ "obj-96", 0 ]
				}

			}
, 			{
				"patchline" : 				{
					"destination" : [ "obj-16", 0 ],
					"source" : [ "obj-97", 0 ]
				}

			}
, 			{
				"patchline" : 				{
					"destination" : [ "obj-16", 0 ],
					"source" : [ "obj-98", 0 ]
				}

			}
, 			{
				"patchline" : 				{
					"destination" : [ "obj-16", 0 ],
					"source" : [ "obj-99", 0 ]
				}

			}
 ],
		"dependency_cache" : [ 			{
				"name" : "dropfile_1.maxpat",
				"bootpath" : "~/Documents/max/Major Project/antikSAVE/dropfiles",
				"patcherrelativepath" : "../dropfiles",
				"type" : "JSON",
				"implicit" : 1
			}
, 			{
				"name" : "dropfile_2.maxpat",
				"bootpath" : "~/Documents/max/Major Project/antikSAVE/dropfiles",
				"patcherrelativepath" : "../dropfiles",
				"type" : "JSON",
				"implicit" : 1
			}
, 			{
				"name" : "dropfile_3.maxpat",
				"bootpath" : "~/Documents/max/Major Project/antikSAVE/dropfiles",
				"patcherrelativepath" : "../dropfiles",
				"type" : "JSON",
				"implicit" : 1
			}
, 			{
				"name" : "dropfile_4.maxpat",
				"bootpath" : "~/Documents/max/Major Project/antikSAVE/dropfiles",
				"patcherrelativepath" : "../dropfiles",
				"type" : "JSON",
				"implicit" : 1
			}
, 			{
				"name" : "dropfile_5.maxpat",
				"bootpath" : "~/Documents/max/Major Project/antikSAVE/dropfiles",
				"patcherrelativepath" : "../dropfiles",
				"type" : "JSON",
				"implicit" : 1
			}
, 			{
				"name" : "dropfile_6.maxpat",
				"bootpath" : "~/Documents/max/Major Project/antikSAVE/dropfiles",
				"patcherrelativepath" : "../dropfiles",
				"type" : "JSON",
				"implicit" : 1
			}
, 			{
				"name" : "dropfile_7.maxpat",
				"bootpath" : "~/Documents/max/Major Project/antikSAVE/dropfiles",
				"patcherrelativepath" : "../dropfiles",
				"type" : "JSON",
				"implicit" : 1
			}
, 			{
				"name" : "dropfile_8.maxpat",
				"bootpath" : "~/Documents/max/Major Project/antikSAVE/dropfiles",
				"patcherrelativepath" : "../dropfiles",
				"type" : "JSON",
				"implicit" : 1
			}
, 			{
				"name" : "dropfile_9.maxpat",
				"bootpath" : "~/Documents/max/Major Project/antikSAVE/dropfiles",
				"patcherrelativepath" : "../dropfiles",
				"type" : "JSON",
				"implicit" : 1
			}
, 			{
				"name" : "dropfile_10.maxpat",
				"bootpath" : "~/Documents/max/Major Project/antikSAVE/dropfiles",
				"patcherrelativepath" : "../dropfiles",
				"type" : "JSON",
				"implicit" : 1
			}
, 			{
				"name" : "dropfile_11.maxpat",
				"bootpath" : "~/Documents/max/Major Project/antikSAVE/dropfiles",
				"patcherrelativepath" : "../dropfiles",
				"type" : "JSON",
				"implicit" : 1
			}
, 			{
				"name" : "dropfile_12.maxpat",
				"bootpath" : "~/Documents/max/Major Project/antikSAVE/dropfiles",
				"patcherrelativepath" : "../dropfiles",
				"type" : "JSON",
				"implicit" : 1
			}
, 			{
				"name" : "dropfile_21.maxpat",
				"bootpath" : "~/Documents/max/Major Project/antikSAVE/dropfiles",
				"patcherrelativepath" : "../dropfiles",
				"type" : "JSON",
				"implicit" : 1
			}
, 			{
				"name" : "dropfile_17.maxpat",
				"bootpath" : "~/Documents/max/Major Project/antikSAVE/dropfiles",
				"patcherrelativepath" : "../dropfiles",
				"type" : "JSON",
				"implicit" : 1
			}
, 			{
				"name" : "dropfile_13.maxpat",
				"bootpath" : "~/Documents/max/Major Project/antikSAVE/dropfiles",
				"patcherrelativepath" : "../dropfiles",
				"type" : "JSON",
				"implicit" : 1
			}
, 			{
				"name" : "dropfile_22.maxpat",
				"bootpath" : "~/Documents/max/Major Project/antikSAVE/dropfiles",
				"patcherrelativepath" : "../dropfiles",
				"type" : "JSON",
				"implicit" : 1
			}
, 			{
				"name" : "dropfile_18.maxpat",
				"bootpath" : "~/Documents/max/Major Project/antikSAVE/dropfiles",
				"patcherrelativepath" : "../dropfiles",
				"type" : "JSON",
				"implicit" : 1
			}
, 			{
				"name" : "dropfile_14.maxpat",
				"bootpath" : "~/Documents/max/Major Project/antikSAVE/dropfiles",
				"patcherrelativepath" : "../dropfiles",
				"type" : "JSON",
				"implicit" : 1
			}
, 			{
				"name" : "dropfile_23.maxpat",
				"bootpath" : "~/Documents/max/Major Project/antikSAVE/dropfiles",
				"patcherrelativepath" : "../dropfiles",
				"type" : "JSON",
				"implicit" : 1
			}
, 			{
				"name" : "dropfile_19.maxpat",
				"bootpath" : "~/Documents/max/Major Project/antikSAVE/dropfiles",
				"patcherrelativepath" : "../dropfiles",
				"type" : "JSON",
				"implicit" : 1
			}
, 			{
				"name" : "dropfile_15.maxpat",
				"bootpath" : "~/Documents/max/Major Project/antikSAVE/dropfiles",
				"patcherrelativepath" : "../dropfiles",
				"type" : "JSON",
				"implicit" : 1
			}
, 			{
				"name" : "dropfile_24.maxpat",
				"bootpath" : "~/Documents/max/Major Project/antikSAVE/dropfiles",
				"patcherrelativepath" : "../dropfiles",
				"type" : "JSON",
				"implicit" : 1
			}
, 			{
				"name" : "dropfile_20.maxpat",
				"bootpath" : "~/Documents/max/Major Project/antikSAVE/dropfiles",
				"patcherrelativepath" : "../dropfiles",
				"type" : "JSON",
				"implicit" : 1
			}
, 			{
				"name" : "dropfile_16.maxpat",
				"bootpath" : "~/Documents/max/Major Project/antikSAVE/dropfiles",
				"patcherrelativepath" : "../dropfiles",
				"type" : "JSON",
				"implicit" : 1
			}
, 			{
				"name" : "dropfile_33.maxpat",
				"bootpath" : "~/Documents/max/Major Project/antikSAVE/dropfiles",
				"patcherrelativepath" : "../dropfiles",
				"type" : "JSON",
				"implicit" : 1
			}
, 			{
				"name" : "dropfile_29.maxpat",
				"bootpath" : "~/Documents/max/Major Project/antikSAVE/dropfiles",
				"patcherrelativepath" : "../dropfiles",
				"type" : "JSON",
				"implicit" : 1
			}
, 			{
				"name" : "dropfile_25.maxpat",
				"bootpath" : "~/Documents/max/Major Project/antikSAVE/dropfiles",
				"patcherrelativepath" : "../dropfiles",
				"type" : "JSON",
				"implicit" : 1
			}
, 			{
				"name" : "dropfile_34.maxpat",
				"bootpath" : "~/Documents/max/Major Project/antikSAVE/dropfiles",
				"patcherrelativepath" : "../dropfiles",
				"type" : "JSON",
				"implicit" : 1
			}
, 			{
				"name" : "dropfile_30.maxpat",
				"bootpath" : "~/Documents/max/Major Project/antikSAVE/dropfiles",
				"patcherrelativepath" : "../dropfiles",
				"type" : "JSON",
				"implicit" : 1
			}
, 			{
				"name" : "dropfile_26.maxpat",
				"bootpath" : "~/Documents/max/Major Project/antikSAVE/dropfiles",
				"patcherrelativepath" : "../dropfiles",
				"type" : "JSON",
				"implicit" : 1
			}
, 			{
				"name" : "dropfile_35.maxpat",
				"bootpath" : "~/Documents/max/Major Project/antikSAVE/dropfiles",
				"patcherrelativepath" : "../dropfiles",
				"type" : "JSON",
				"implicit" : 1
			}
, 			{
				"name" : "dropfile_31.maxpat",
				"bootpath" : "~/Documents/max/Major Project/antikSAVE/dropfiles",
				"patcherrelativepath" : "../dropfiles",
				"type" : "JSON",
				"implicit" : 1
			}
, 			{
				"name" : "dropfile_27.maxpat",
				"bootpath" : "~/Documents/max/Major Project/antikSAVE/dropfiles",
				"patcherrelativepath" : "../dropfiles",
				"type" : "JSON",
				"implicit" : 1
			}
, 			{
				"name" : "dropfile_36.maxpat",
				"bootpath" : "~/Documents/max/Major Project/antikSAVE/dropfiles",
				"patcherrelativepath" : "../dropfiles",
				"type" : "JSON",
				"implicit" : 1
			}
, 			{
				"name" : "dropfile_32.maxpat",
				"bootpath" : "~/Documents/max/Major Project/antikSAVE/dropfiles",
				"patcherrelativepath" : "../dropfiles",
				"type" : "JSON",
				"implicit" : 1
			}
, 			{
				"name" : "dropfile_28.maxpat",
				"bootpath" : "~/Documents/max/Major Project/antikSAVE/dropfiles",
				"patcherrelativepath" : "../dropfiles",
				"type" : "JSON",
				"implicit" : 1
			}
, 			{
				"name" : "dropfile_44.maxpat",
				"bootpath" : "~/Documents/max/Major Project/antikSAVE/dropfiles",
				"patcherrelativepath" : "../dropfiles",
				"type" : "JSON",
				"implicit" : 1
			}
, 			{
				"name" : "dropfile_41.maxpat",
				"bootpath" : "~/Documents/max/Major Project/antikSAVE/dropfiles",
				"patcherrelativepath" : "../dropfiles",
				"type" : "JSON",
				"implicit" : 1
			}
, 			{
				"name" : "dropfile_37.maxpat",
				"bootpath" : "~/Documents/max/Major Project/antikSAVE/dropfiles",
				"patcherrelativepath" : "../dropfiles",
				"type" : "JSON",
				"implicit" : 1
			}
, 			{
				"name" : "dropfile_45.maxpat",
				"bootpath" : "~/Documents/max/Major Project/antikSAVE/dropfiles",
				"patcherrelativepath" : "../dropfiles",
				"type" : "JSON",
				"implicit" : 1
			}
, 			{
				"name" : "dropfile_38.maxpat",
				"bootpath" : "~/Documents/max/Major Project/antikSAVE/dropfiles",
				"patcherrelativepath" : "../dropfiles",
				"type" : "JSON",
				"implicit" : 1
			}
, 			{
				"name" : "dropfile_46.maxpat",
				"bootpath" : "~/Documents/max/Major Project/antikSAVE/dropfiles",
				"patcherrelativepath" : "../dropfiles",
				"type" : "JSON",
				"implicit" : 1
			}
, 			{
				"name" : "dropfile_42.maxpat",
				"bootpath" : "~/Documents/max/Major Project/antikSAVE/dropfiles",
				"patcherrelativepath" : "../dropfiles",
				"type" : "JSON",
				"implicit" : 1
			}
, 			{
				"name" : "dropfile_39.maxpat",
				"bootpath" : "~/Documents/max/Major Project/antikSAVE/dropfiles",
				"patcherrelativepath" : "../dropfiles",
				"type" : "JSON",
				"implicit" : 1
			}
, 			{
				"name" : "dropfile_47.maxpat",
				"bootpath" : "~/Documents/max/Major Project/antikSAVE/dropfiles",
				"patcherrelativepath" : "../dropfiles",
				"type" : "JSON",
				"implicit" : 1
			}
, 			{
				"name" : "dropfile_43.maxpat",
				"bootpath" : "~/Documents/max/Major Project/antikSAVE/dropfiles",
				"patcherrelativepath" : "../dropfiles",
				"type" : "JSON",
				"implicit" : 1
			}
, 			{
				"name" : "dropfile_40.maxpat",
				"bootpath" : "~/Documents/max/Major Project/antikSAVE/dropfiles",
				"patcherrelativepath" : "../dropfiles",
				"type" : "JSON",
				"implicit" : 1
			}
, 			{
				"name" : "dropfile_57.maxpat",
				"bootpath" : "~/Documents/max/Major Project/antikSAVE/dropfiles",
				"patcherrelativepath" : "../dropfiles",
				"type" : "JSON",
				"implicit" : 1
			}
, 			{
				"name" : "dropfile_53.maxpat",
				"bootpath" : "~/Documents/max/Major Project/antikSAVE/dropfiles",
				"patcherrelativepath" : "../dropfiles",
				"type" : "JSON",
				"implicit" : 1
			}
, 			{
				"name" : "dropfile_49.maxpat",
				"bootpath" : "~/Documents/max/Major Project/antikSAVE/dropfiles",
				"patcherrelativepath" : "../dropfiles",
				"type" : "JSON",
				"implicit" : 1
			}
, 			{
				"name" : "dropfile_58.maxpat",
				"bootpath" : "~/Documents/max/Major Project/antikSAVE/dropfiles",
				"patcherrelativepath" : "../dropfiles",
				"type" : "JSON",
				"implicit" : 1
			}
, 			{
				"name" : "dropfile_54.maxpat",
				"bootpath" : "~/Documents/max/Major Project/antikSAVE/dropfiles",
				"patcherrelativepath" : "../dropfiles",
				"type" : "JSON",
				"implicit" : 1
			}
, 			{
				"name" : "dropfile_50.maxpat",
				"bootpath" : "~/Documents/max/Major Project/antikSAVE/dropfiles",
				"patcherrelativepath" : "../dropfiles",
				"type" : "JSON",
				"implicit" : 1
			}
, 			{
				"name" : "dropfile_59.maxpat",
				"bootpath" : "~/Documents/max/Major Project/antikSAVE/dropfiles",
				"patcherrelativepath" : "../dropfiles",
				"type" : "JSON",
				"implicit" : 1
			}
, 			{
				"name" : "dropfile_55.maxpat",
				"bootpath" : "~/Documents/max/Major Project/antikSAVE/dropfiles",
				"patcherrelativepath" : "../dropfiles",
				"type" : "JSON",
				"implicit" : 1
			}
, 			{
				"name" : "dropfile_51.maxpat",
				"bootpath" : "~/Documents/max/Major Project/antikSAVE/dropfiles",
				"patcherrelativepath" : "../dropfiles",
				"type" : "JSON",
				"implicit" : 1
			}
, 			{
				"name" : "dropfile_60.maxpat",
				"bootpath" : "~/Documents/max/Major Project/antikSAVE/dropfiles",
				"patcherrelativepath" : "../dropfiles",
				"type" : "JSON",
				"implicit" : 1
			}
, 			{
				"name" : "dropfile_56.maxpat",
				"bootpath" : "~/Documents/max/Major Project/antikSAVE/dropfiles",
				"patcherrelativepath" : "../dropfiles",
				"type" : "JSON",
				"implicit" : 1
			}
, 			{
				"name" : "dropfile_52.maxpat",
				"bootpath" : "~/Documents/max/Major Project/antikSAVE/dropfiles",
				"patcherrelativepath" : "../dropfiles",
				"type" : "JSON",
				"implicit" : 1
			}
, 			{
				"name" : "dropfile_69.maxpat",
				"bootpath" : "~/Documents/max/Major Project/antikSAVE/dropfiles",
				"patcherrelativepath" : "../dropfiles",
				"type" : "JSON",
				"implicit" : 1
			}
, 			{
				"name" : "dropfile_65.maxpat",
				"bootpath" : "~/Documents/max/Major Project/antikSAVE/dropfiles",
				"patcherrelativepath" : "../dropfiles",
				"type" : "JSON",
				"implicit" : 1
			}
, 			{
				"name" : "dropfile_61.maxpat",
				"bootpath" : "~/Documents/max/Major Project/antikSAVE/dropfiles",
				"patcherrelativepath" : "../dropfiles",
				"type" : "JSON",
				"implicit" : 1
			}
, 			{
				"name" : "dropfile_70.maxpat",
				"bootpath" : "~/Documents/max/Major Project/antikSAVE/dropfiles",
				"patcherrelativepath" : "../dropfiles",
				"type" : "JSON",
				"implicit" : 1
			}
, 			{
				"name" : "dropfile_66.maxpat",
				"bootpath" : "~/Documents/max/Major Project/antikSAVE/dropfiles",
				"patcherrelativepath" : "../dropfiles",
				"type" : "JSON",
				"implicit" : 1
			}
, 			{
				"name" : "dropfile_62.maxpat",
				"bootpath" : "~/Documents/max/Major Project/antikSAVE/dropfiles",
				"patcherrelativepath" : "../dropfiles",
				"type" : "JSON",
				"implicit" : 1
			}
, 			{
				"name" : "dropfile_71.maxpat",
				"bootpath" : "~/Documents/max/Major Project/antikSAVE/dropfiles",
				"patcherrelativepath" : "../dropfiles",
				"type" : "JSON",
				"implicit" : 1
			}
, 			{
				"name" : "dropfile_67.maxpat",
				"bootpath" : "~/Documents/max/Major Project/antikSAVE/dropfiles",
				"patcherrelativepath" : "../dropfiles",
				"type" : "JSON",
				"implicit" : 1
			}
, 			{
				"name" : "dropfile_63.maxpat",
				"bootpath" : "~/Documents/max/Major Project/antikSAVE/dropfiles",
				"patcherrelativepath" : "../dropfiles",
				"type" : "JSON",
				"implicit" : 1
			}
, 			{
				"name" : "dropfile_72.maxpat",
				"bootpath" : "~/Documents/max/Major Project/antikSAVE/dropfiles",
				"patcherrelativepath" : "../dropfiles",
				"type" : "JSON",
				"implicit" : 1
			}
, 			{
				"name" : "dropfile_68.maxpat",
				"bootpath" : "~/Documents/max/Major Project/antikSAVE/dropfiles",
				"patcherrelativepath" : "../dropfiles",
				"type" : "JSON",
				"implicit" : 1
			}
, 			{
				"name" : "dropfile_64.maxpat",
				"bootpath" : "~/Documents/max/Major Project/antikSAVE/dropfiles",
				"patcherrelativepath" : "../dropfiles",
				"type" : "JSON",
				"implicit" : 1
			}
, 			{
				"name" : "dropfile_81.maxpat",
				"bootpath" : "~/Documents/max/Major Project/antikSAVE/dropfiles",
				"patcherrelativepath" : "../dropfiles",
				"type" : "JSON",
				"implicit" : 1
			}
, 			{
				"name" : "dropfile_77.maxpat",
				"bootpath" : "~/Documents/max/Major Project/antikSAVE/dropfiles",
				"patcherrelativepath" : "../dropfiles",
				"type" : "JSON",
				"implicit" : 1
			}
, 			{
				"name" : "dropfile_73.maxpat",
				"bootpath" : "~/Documents/max/Major Project/antikSAVE/dropfiles",
				"patcherrelativepath" : "../dropfiles",
				"type" : "JSON",
				"implicit" : 1
			}
, 			{
				"name" : "dropfile_82.maxpat",
				"bootpath" : "~/Documents/max/Major Project/antikSAVE/dropfiles",
				"patcherrelativepath" : "../dropfiles",
				"type" : "JSON",
				"implicit" : 1
			}
, 			{
				"name" : "dropfile_78.maxpat",
				"bootpath" : "~/Documents/max/Major Project/antikSAVE/dropfiles",
				"patcherrelativepath" : "../dropfiles",
				"type" : "JSON",
				"implicit" : 1
			}
, 			{
				"name" : "dropfile_74.maxpat",
				"bootpath" : "~/Documents/max/Major Project/antikSAVE/dropfiles",
				"patcherrelativepath" : "../dropfiles",
				"type" : "JSON",
				"implicit" : 1
			}
, 			{
				"name" : "dropfile_84.maxpat",
				"bootpath" : "~/Documents/max/Major Project/antikSAVE/dropfiles",
				"patcherrelativepath" : "../dropfiles",
				"type" : "JSON",
				"implicit" : 1
			}
, 			{
				"name" : "dropfile_79.maxpat",
				"bootpath" : "~/Documents/max/Major Project/antikSAVE/dropfiles",
				"patcherrelativepath" : "../dropfiles",
				"type" : "JSON",
				"implicit" : 1
			}
, 			{
				"name" : "dropfile_75.maxpat",
				"bootpath" : "~/Documents/max/Major Project/antikSAVE/dropfiles",
				"patcherrelativepath" : "../dropfiles",
				"type" : "JSON",
				"implicit" : 1
			}
, 			{
				"name" : "dropfile_83.maxpat",
				"bootpath" : "~/Documents/max/Major Project/antikSAVE/dropfiles",
				"patcherrelativepath" : "../dropfiles",
				"type" : "JSON",
				"implicit" : 1
			}
, 			{
				"name" : "dropfile_80.maxpat",
				"bootpath" : "~/Documents/max/Major Project/antikSAVE/dropfiles",
				"patcherrelativepath" : "../dropfiles",
				"type" : "JSON",
				"implicit" : 1
			}
, 			{
				"name" : "dropfile_76.maxpat",
				"bootpath" : "~/Documents/max/Major Project/antikSAVE/dropfiles",
				"patcherrelativepath" : "../dropfiles",
				"type" : "JSON",
				"implicit" : 1
			}
, 			{
				"name" : "dropfile_93.maxpat",
				"bootpath" : "~/Documents/max/Major Project/antikSAVE/dropfiles",
				"patcherrelativepath" : "../dropfiles",
				"type" : "JSON",
				"implicit" : 1
			}
, 			{
				"name" : "dropfile_89.maxpat",
				"bootpath" : "~/Documents/max/Major Project/antikSAVE/dropfiles",
				"patcherrelativepath" : "../dropfiles",
				"type" : "JSON",
				"implicit" : 1
			}
, 			{
				"name" : "dropfile_85.maxpat",
				"bootpath" : "~/Documents/max/Major Project/antikSAVE/dropfiles",
				"patcherrelativepath" : "../dropfiles",
				"type" : "JSON",
				"implicit" : 1
			}
, 			{
				"name" : "dropfile_94.maxpat",
				"bootpath" : "~/Documents/max/Major Project/antikSAVE/dropfiles",
				"patcherrelativepath" : "../dropfiles",
				"type" : "JSON",
				"implicit" : 1
			}
, 			{
				"name" : "dropfile_90.maxpat",
				"bootpath" : "~/Documents/max/Major Project/antikSAVE/dropfiles",
				"patcherrelativepath" : "../dropfiles",
				"type" : "JSON",
				"implicit" : 1
			}
, 			{
				"name" : "dropfile_86.maxpat",
				"bootpath" : "~/Documents/max/Major Project/antikSAVE/dropfiles",
				"patcherrelativepath" : "../dropfiles",
				"type" : "JSON",
				"implicit" : 1
			}
, 			{
				"name" : "dropfile_95.maxpat",
				"bootpath" : "~/Documents/max/Major Project/antikSAVE/dropfiles",
				"patcherrelativepath" : "../dropfiles",
				"type" : "JSON",
				"implicit" : 1
			}
, 			{
				"name" : "dropfile_91.maxpat",
				"bootpath" : "~/Documents/max/Major Project/antikSAVE/dropfiles",
				"patcherrelativepath" : "../dropfiles",
				"type" : "JSON",
				"implicit" : 1
			}
, 			{
				"name" : "dropfile_87.maxpat",
				"bootpath" : "~/Documents/max/Major Project/antikSAVE/dropfiles",
				"patcherrelativepath" : "../dropfiles",
				"type" : "JSON",
				"implicit" : 1
			}
, 			{
				"name" : "dropfile_96.maxpat",
				"bootpath" : "~/Documents/max/Major Project/antikSAVE/dropfiles",
				"patcherrelativepath" : "../dropfiles",
				"type" : "JSON",
				"implicit" : 1
			}
, 			{
				"name" : "dropfile_92.maxpat",
				"bootpath" : "~/Documents/max/Major Project/antikSAVE/dropfiles",
				"patcherrelativepath" : "../dropfiles",
				"type" : "JSON",
				"implicit" : 1
			}
, 			{
				"name" : "dropfile_88.maxpat",
				"bootpath" : "~/Documents/max/Major Project/antikSAVE/dropfiles",
				"patcherrelativepath" : "../dropfiles",
				"type" : "JSON",
				"implicit" : 1
			}
, 			{
				"name" : "dropfile_48.maxpat",
				"bootpath" : "~/Documents/max/Major Project/antikSAVE/dropfiles",
				"patcherrelativepath" : "../dropfiles",
				"type" : "JSON",
				"implicit" : 1
			}
 ],
		"autosave" : 0
	}

}
